<svg width="149" height="91" viewBox="0 0 149 91" fill="none" xmlns="http://www.w3.org/2000/svg">
<path d="M87.4238 53.0698H73.7402V57.6116H87.4238V53.0698Z" fill="black"/>
<path d="M87.4238 60.6396H73.7402V65.1817H87.4238V60.6396Z" fill="black"/>
<path d="M87.4234 68.2095H82.8623V72.7513H87.4234V68.2095Z" fill="black"/>
<path d="M60.8162 60.6396H53.8223V65.1817H60.8162V60.6396Z" fill="black"/>
<path d="M39.2264 47.771H34.665V52.3128H39.2264V47.771Z" fill="black"/>
<path d="M64.4655 19.0054H55.343C52.409 19.0054 50.0215 21.3825 50.0215 24.3044V33.3882C50.0215 36.3098 52.4087 38.6872 55.343 38.6872H64.4655C67.3995 38.6872 69.787 36.3101 69.787 33.3882V24.3044C69.787 21.3828 67.3998 19.0054 64.4655 19.0054ZM65.2259 33.3882C65.2259 33.8058 64.8851 34.1451 64.4658 34.1451H55.3433C54.9239 34.1451 54.5832 33.8058 54.5832 33.3882V24.3044C54.5832 23.8868 54.9239 23.5474 55.3433 23.5474H64.4658C64.8851 23.5474 65.2259 23.8868 65.2259 24.3044V33.3882Z" fill="#070707"/>
<path d="M30.4082 68.9668C26.6357 68.9668 23.5664 72.0231 23.5664 75.7796C23.5664 79.5361 26.6357 82.5925 30.4082 82.5925C34.1806 82.5925 37.25 79.5361 37.25 75.7796C37.25 72.0231 34.1806 68.9668 30.4082 68.9668ZM30.4082 78.0507C29.1504 78.0507 28.1275 77.0321 28.1275 75.7796C28.1275 74.5272 29.1504 73.5086 30.4082 73.5086C31.666 73.5086 32.6889 74.5272 32.6889 75.7796C32.6889 77.0318 31.666 78.0507 30.4082 78.0507Z" fill="black"/>
<path d="M119.352 68.9668C115.579 68.9668 112.51 72.0231 112.51 75.7796C112.51 79.5361 115.579 82.5925 119.352 82.5925C123.124 82.5925 126.193 79.5361 126.193 75.7796C126.193 72.0231 123.124 68.9668 119.352 68.9668ZM119.352 78.0507C118.094 78.0507 117.071 77.0321 117.071 75.7796C117.071 74.5272 118.094 73.5086 119.352 73.5086C120.609 73.5086 121.632 74.5272 121.632 75.7796C121.632 77.0318 120.609 78.0507 119.352 78.0507Z" fill="black"/>
<path d="M30.5812 16.8857L22.7988 43.2289H41.5074V16.8857H30.5812ZM36.9463 38.6871H28.8953L33.9939 21.4278H36.9463V38.6871Z" fill="black"/>
<path d="M137.597 0.837891H31.1684C24.8807 0.837891 19.7652 5.93143 19.7652 12.1928V14.4638H23.5592L15.4867 41.7934L0 55.0557V81.0786H16.9845C19.1084 86.3935 24.3228 90.1625 30.4082 90.1625C36.4936 90.1625 41.7081 86.3935 43.8319 81.0786H60.8164V76.5368H56.6968L54.6236 72.7519H64.6177V81.0789H70.6993V89.4058H75.2604V81.0789H85.9032V89.4058H90.4642V81.0789H96.5459V72.7519H105.233C105.022 73.7288 104.908 74.7413 104.908 75.7799C104.908 76.034 104.915 76.2861 104.928 76.5368H100.347V81.0786H105.929C108.052 86.3935 113.267 90.1625 119.352 90.1625C125.438 90.1625 130.652 86.3935 132.776 81.0786H149V14.4635V12.1925C149 5.93143 143.885 0.837891 137.597 0.837891ZM31.1684 5.37968H137.597C140.57 5.37968 143.106 7.27835 144.048 9.92147H89.1352L79.0233 26.7032V30.6631C79.0233 34.8965 82.3333 38.3722 86.5114 38.6646V44.7428H75.8686V14.4633H84.231V9.92147H24.901H24.7174C25.6588 7.27835 28.195 5.37968 31.1684 5.37968ZM129.127 25.0613L125.296 14.4635H128.666L135.052 25.0613H129.127ZM136.799 29.6033V30.6631C136.799 32.5832 135.23 34.1451 133.302 34.1451C131.373 34.1451 129.805 32.5829 129.805 30.6631V29.6033H136.799ZM118.25 29.6033H125.244V30.6631C125.244 32.5832 123.675 34.1451 121.747 34.1451C119.819 34.1451 118.25 32.5829 118.25 30.6631V29.6033H118.25ZM117.993 25.0613L116.715 14.4635H120.448L124.279 25.0613H117.993ZM113.688 29.6033V30.6631C113.688 32.5832 112.12 34.1451 110.192 34.1451C108.264 34.1451 106.695 32.5829 106.695 30.6631V29.6033H113.688ZM106.984 25.0613L108.262 14.4635H112.121L113.399 25.0613H106.984ZM96.1038 25.0613L99.9353 14.4635H103.668L102.391 25.0613H96.1038ZM102.133 29.6033V30.6631C102.133 32.5832 100.565 34.1451 98.6365 34.1451C96.7083 34.1451 95.1397 32.5829 95.1397 30.6631V29.6033H102.133ZM85.3316 25.0613L91.7174 14.4635H95.0876L91.2561 25.0613H85.3316ZM90.5783 29.6033V30.6631C90.5783 32.5832 89.0095 34.1451 87.0815 34.1451C85.1532 34.1451 83.5846 32.5829 83.5846 30.6631V29.6033H90.5783ZM15.9843 76.5365H4.56109V72.7516H16.289C16.078 73.7285 15.9642 74.741 15.9642 75.7796C15.9642 76.0334 15.9712 76.2859 15.9843 76.5365ZM30.4082 85.6204C24.9587 85.6204 20.5256 81.2058 20.5256 75.7796C20.5256 70.3531 24.959 65.9388 30.4082 65.9388C35.8575 65.9388 40.2908 70.3534 40.2908 75.7796C40.2908 81.2058 35.8575 85.6204 30.4082 85.6204ZM42.6821 68.2096C40.1313 64.1239 35.5845 61.3967 30.4082 61.3967C25.2319 61.3967 20.6848 64.1239 18.1343 68.2096H4.56138V65.9385H9.88289V61.3964H4.56109V57.1398L19.4823 44.3618L28.3132 14.4633H43.9396V62.7324L46.9397 68.2093H42.6821V68.2096ZM44.8318 76.5365C44.8449 76.2859 44.8519 76.0334 44.8519 75.7796C44.8519 74.741 44.7381 73.7285 44.5271 72.7516H49.4278L51.501 76.5365H44.8318ZM64.6174 53.0698H53.8225V57.6116H64.6174V68.2093H52.1354L48.501 61.5744V14.4635H71.307V44.7431H64.6171V53.0698H64.6174ZM91.9848 76.5365H69.1788V49.2849H91.9848V76.5365ZM119.352 85.6204C113.902 85.6204 109.469 81.2058 109.469 75.7796C109.469 70.3531 113.903 65.9388 119.352 65.9388C124.801 65.9388 129.235 70.3534 129.235 75.7796C129.235 81.2058 124.801 85.6204 119.352 85.6204ZM144.439 76.5365H133.776C133.789 76.2859 133.796 76.0334 133.796 75.7796C133.796 74.741 133.682 73.7285 133.471 72.7516H144.439V76.5365ZM144.439 61.3967H139.117V65.9388H144.439V68.2099H131.626C129.075 64.1242 124.528 61.397 119.352 61.397C114.176 61.397 109.629 64.1242 107.078 68.2099H96.5462V59.8829H139.079V55.3411H114.36C114.532 54.8589 114.651 54.3518 114.71 53.8273H117.033V49.2855H114.753V46.2575H101.069V53.0704C101.069 53.8664 101.208 54.6306 101.461 55.3414H96.5459V44.7437H91.0725V37.6295C91.7316 37.2533 92.3329 36.7877 92.859 36.2484C94.3243 37.7509 96.3722 38.6872 98.6365 38.6872C100.901 38.6872 102.949 37.7509 104.414 36.2484C105.879 37.7509 107.927 38.6872 110.192 38.6872C112.456 38.6872 114.504 37.7509 115.969 36.2484C117.434 37.7509 119.482 38.6872 121.747 38.6872C124.011 38.6872 126.059 37.7509 127.524 36.2484C128.05 36.7877 128.651 37.2533 129.311 37.6295V51.556H133.872V38.6649C138.05 38.3725 141.36 34.8965 141.36 30.6634V26.7038L133.985 14.4638H144.439V61.3967ZM105.63 53.0698V50.7987H110.191V53.0698C110.191 54.3222 109.168 55.3408 107.911 55.3408C106.653 55.3408 105.63 54.3222 105.63 53.0698Z" fill="black"/>
</svg>
