<svg width="233" height="119" viewBox="0 0 233 119" fill="none" xmlns="http://www.w3.org/2000/svg">
<path d="M128.01 52.8059H114.235V57.3976H128.01V52.8059Z" fill="#474747"/>
<path d="M128.01 60.4591H114.235V65.0511H128.01V60.4591Z" fill="#474747"/>
<path d="M128.01 68.112H123.418V72.7037H128.01V68.112Z" fill="#474747"/>
<path d="M101.225 60.4591H94.1837V65.0511H101.225V60.4591Z" fill="#474747"/>
<path d="M79.4899 47.4489H74.8979V52.0406H79.4899V47.4489Z" fill="#474747"/>
<path d="M104.898 18.3671H95.7141C92.7604 18.3671 90.3569 20.7703 90.3569 23.7243V32.908C90.3569 35.8617 92.7601 38.2652 95.7141 38.2652H104.898C107.852 38.2652 110.255 35.862 110.255 32.908V23.7243C110.255 20.7706 107.852 18.3671 104.898 18.3671ZM105.663 32.908C105.663 33.3302 105.32 33.6732 104.898 33.6732H95.7144C95.2923 33.6732 94.9492 33.3302 94.9492 32.908V23.7243C94.9492 23.3021 95.2923 22.9591 95.7144 22.9591H104.898C105.32 22.9591 105.663 23.3021 105.663 23.7243V32.908Z" fill="#474747"/>
<path d="M70.6123 68.8775C66.8146 68.8775 63.7246 71.9675 63.7246 75.7652C63.7246 79.563 66.8146 82.6529 70.6123 82.6529C74.4101 82.6529 77.5 79.563 77.5 75.7652C77.5 71.9675 74.4101 68.8775 70.6123 68.8775ZM70.6123 78.0612C69.3461 78.0612 68.3163 77.0314 68.3163 75.7652C68.3163 74.499 69.3461 73.4692 70.6123 73.4692C71.8785 73.4692 72.9083 74.499 72.9083 75.7652C72.9083 77.0311 71.8785 78.0612 70.6123 78.0612Z" fill="#474747"/>
<path d="M160.153 68.8775C156.355 68.8775 153.265 71.9675 153.265 75.7652C153.265 79.563 156.355 82.6529 160.153 82.6529C163.951 82.6529 167.041 79.563 167.041 75.7652C167.041 71.9675 163.951 68.8775 160.153 68.8775ZM160.153 78.0612C158.887 78.0612 157.857 77.0314 157.857 75.7652C157.857 74.499 158.887 73.4692 160.153 73.4692C161.419 73.4692 162.449 74.499 162.449 75.7652C162.449 77.0311 161.419 78.0612 160.153 78.0612Z" fill="#474747"/>
<path d="M70.786 16.2243L62.9515 42.8569H81.7855V16.2243H70.786ZM77.1938 38.2652H69.0889L74.2217 20.8163H77.1938V38.2652Z" fill="#474747"/>
<path d="M178.52 0H71.3775C65.0477 0 59.8979 5.14951 59.8979 11.4797V13.7757H63.7173L55.5906 41.4056L40 54.8136V81.1225H57.0985C59.2366 86.4958 64.486 90.3062 70.6123 90.3062C76.7386 90.3062 81.988 86.4958 84.1261 81.1225H101.225V76.5308H97.0773L94.9902 72.7043H105.051V81.1228H111.174V89.5412H115.766V81.1228H126.48V89.5412H131.071V81.1228H137.194V72.7043H145.939C145.727 73.6919 145.612 74.7155 145.612 75.7655C145.612 76.0225 145.619 76.2773 145.633 76.5308H141.021V81.1225H146.639C148.778 86.4958 154.027 90.3062 160.153 90.3062C166.279 90.3062 171.529 86.4958 173.667 81.1225H190V11.4794C190 5.14951 184.85 0 178.52 0ZM71.3775 4.5917H178.52C181.514 4.5917 184.067 6.51123 185.015 9.1834H129.733L119.554 26.1495V30.1529C119.554 34.4329 122.886 37.9468 127.092 38.2424V44.3874H116.378V13.7751H124.796V9.1834H64.8833C65.8311 6.51123 68.3843 4.5917 71.3775 4.5917ZM169.994 24.4895L166.137 13.7754H169.529L175.958 24.4895H169.994ZM177.717 29.0815V30.1529C177.717 32.0941 176.137 33.6732 174.196 33.6732C172.255 33.6732 170.676 32.0938 170.676 30.1529V29.0815H177.717ZM159.043 29.0815H166.084V30.1529C166.084 32.0941 164.505 33.6732 162.564 33.6732C160.623 33.6732 159.044 32.0938 159.044 30.1529L159.043 29.0815ZM158.784 24.4895L157.499 13.7754H161.256L165.113 24.4895H158.784ZM154.451 29.0815V30.1529C154.451 32.0941 152.872 33.6732 150.931 33.6732C148.99 33.6732 147.411 32.0938 147.411 30.1529V29.0815H154.451ZM147.702 24.4895L148.988 13.7754H152.874L154.16 24.4895H147.702ZM136.749 24.4895L140.606 13.7754H144.364L143.078 24.4895H136.749ZM142.819 29.0815V30.1529C142.819 32.0941 141.239 33.6732 139.299 33.6732C137.357 33.6732 135.778 32.0938 135.778 30.1529V29.0815H142.819ZM125.904 24.4895L132.333 13.7754H135.726L131.869 24.4895H125.904ZM131.186 29.0815V30.1529C131.186 32.0941 129.607 33.6732 127.666 33.6732C125.725 33.6732 124.146 32.0938 124.146 30.1529V29.0815H131.186ZM56.0916 76.5305H44.5917V72.704H56.3983C56.1859 73.6916 56.0714 74.7152 56.0714 75.7652C56.0714 76.0219 56.0784 76.2771 56.0916 76.5305ZM70.6123 85.7142C65.1262 85.7142 60.6634 81.2511 60.6634 75.7652C60.6634 70.2791 65.1265 65.8163 70.6123 65.8163C76.0981 65.8163 80.5612 70.2794 80.5612 75.7652C80.5612 81.2511 76.0981 85.7142 70.6123 85.7142ZM82.9686 68.112C80.4007 63.9814 75.8233 61.2243 70.6123 61.2243C65.4013 61.2243 60.8236 63.9814 58.2561 68.112H44.592V65.816H49.9492V61.224H44.5917V56.9206L59.6131 44.0021L68.5032 13.7751H84.2345V62.5746L87.2547 68.1117L82.9686 68.112ZM85.1327 76.5305C85.1459 76.2771 85.1529 76.0219 85.1529 75.7652C85.1529 74.7152 85.0384 73.6916 84.826 72.704H89.7596L91.8467 76.5305H85.1327ZM105.051 52.8059H94.1837V57.3976H105.051V68.1117H92.4854L88.8265 61.4039V13.7754H111.786V44.3877H105.051L105.051 52.8059ZM132.602 76.5305H109.643V48.9794H132.602V76.5305ZM160.153 85.7142C154.667 85.7142 150.204 81.2511 150.204 75.7652C150.204 70.2791 154.667 65.8163 160.153 65.8163C165.639 65.8163 170.102 70.2794 170.102 75.7652C170.102 81.2511 165.639 85.7142 160.153 85.7142ZM185.408 76.5305H174.674C174.687 76.2771 174.694 76.0219 174.694 75.7652C174.694 74.7152 174.58 73.6916 174.367 72.704H185.408V76.5305ZM185.408 61.2243H180.051V65.8163H185.408V68.1123H172.509C169.942 63.9817 165.364 61.2246 160.153 61.2246C154.942 61.2246 150.365 63.9817 147.797 68.1123H137.194V59.6938H180.013V55.1021H155.128C155.301 54.6147 155.421 54.102 155.479 53.5717H157.819V48.98H155.523V45.9188H141.747V52.8064C141.747 53.6112 141.887 54.3838 142.142 55.1024H137.194V44.3883H131.684V37.1959C132.347 36.8156 132.953 36.3448 133.482 35.7996C134.957 37.3187 137.019 38.2652 139.299 38.2652C141.578 38.2652 143.64 37.3187 145.115 35.7996C146.59 37.3187 148.652 38.2652 150.931 38.2652C153.211 38.2652 155.272 37.3187 156.747 35.7996C158.223 37.3187 160.284 38.2652 162.564 38.2652C164.843 38.2652 166.905 37.3187 168.38 35.7996C168.91 36.3448 169.515 36.8156 170.179 37.1959V51.2754H174.77V38.2427C178.976 37.9471 182.309 34.4329 182.309 30.1532V26.1501L174.884 13.7757H185.408V61.2243ZM146.339 52.8059V50.5099H150.931V52.8059C150.931 54.0721 149.901 55.1019 148.635 55.1019C147.369 55.1019 146.339 54.0721 146.339 52.8059Z" fill="#474747"/>
<path d="M26.7012 118.321C25.4692 118.321 24.3652 118.121 23.3892 117.721C22.4132 117.321 21.6292 116.729 21.0372 115.945C20.4612 115.161 20.1572 114.217 20.1252 113.113H24.4932C24.5572 113.737 24.7732 114.217 25.1412 114.553C25.5092 114.873 25.9892 115.033 26.5812 115.033C27.1892 115.033 27.6692 114.897 28.0212 114.625C28.3732 114.337 28.5492 113.945 28.5492 113.449C28.5492 113.033 28.4052 112.689 28.1172 112.417C27.8452 112.145 27.5012 111.921 27.0852 111.745C26.6852 111.569 26.1092 111.369 25.3572 111.145C24.2692 110.809 23.3812 110.473 22.6932 110.137C22.0052 109.801 21.4132 109.305 20.9172 108.649C20.4212 107.993 20.1732 107.137 20.1732 106.081C20.1732 104.513 20.7412 103.289 21.8772 102.409C23.0132 101.513 24.4932 101.065 26.3172 101.065C28.1732 101.065 29.6692 101.513 30.8052 102.409C31.9412 103.289 32.5492 104.521 32.6292 106.105H28.1892C28.1572 105.561 27.9572 105.137 27.5892 104.833C27.2212 104.513 26.7492 104.353 26.1732 104.353C25.6772 104.353 25.2772 104.489 24.9732 104.761C24.6692 105.017 24.5172 105.393 24.5172 105.889C24.5172 106.433 24.7732 106.857 25.2852 107.161C25.7972 107.465 26.5972 107.793 27.6852 108.145C28.7732 108.513 29.6532 108.865 30.3252 109.201C31.0132 109.537 31.6052 110.025 32.1012 110.665C32.5972 111.305 32.8452 112.129 32.8452 113.137C32.8452 114.097 32.5972 114.969 32.1012 115.753C31.6212 116.537 30.9172 117.161 29.9892 117.625C29.0612 118.089 27.9652 118.321 26.7012 118.321ZM43.5308 104.617C45.0988 104.617 46.3468 105.129 47.2748 106.153C48.2188 107.161 48.6908 108.553 48.6908 110.329V118.153H44.6108V110.881C44.6108 109.985 44.3788 109.289 43.9148 108.793C43.4508 108.297 42.8268 108.049 42.0428 108.049C41.2588 108.049 40.6348 108.297 40.1708 108.793C39.7068 109.289 39.4748 109.985 39.4748 110.881V118.153H35.3708V104.761H39.4748V106.537C39.8908 105.945 40.4508 105.481 41.1548 105.145C41.8588 104.793 42.6508 104.617 43.5308 104.617ZM50.7267 111.433C50.7267 110.057 50.9827 108.849 51.4947 107.809C52.0227 106.769 52.7347 105.969 53.6307 105.409C54.5267 104.849 55.5267 104.569 56.6307 104.569C57.5747 104.569 58.3987 104.761 59.1027 105.145C59.8227 105.529 60.3747 106.033 60.7587 106.657V104.761H64.8627V118.153H60.7587V116.257C60.3587 116.881 59.7987 117.385 59.0787 117.769C58.3747 118.153 57.5507 118.345 56.6067 118.345C55.5187 118.345 54.5267 118.065 53.6307 117.505C52.7347 116.929 52.0227 116.121 51.4947 115.081C50.9827 114.025 50.7267 112.809 50.7267 111.433ZM60.7587 111.457C60.7587 110.433 60.4707 109.625 59.8947 109.033C59.3347 108.441 58.6467 108.145 57.8307 108.145C57.0147 108.145 56.3187 108.441 55.7427 109.033C55.1827 109.609 54.9027 110.409 54.9027 111.433C54.9027 112.457 55.1827 113.273 55.7427 113.881C56.3187 114.473 57.0147 114.769 57.8307 114.769C58.6467 114.769 59.3347 114.473 59.8947 113.881C60.4707 113.289 60.7587 112.481 60.7587 111.457ZM67.0158 111.457C67.0158 110.065 67.2958 108.849 67.8558 107.809C68.4318 106.769 69.2238 105.969 70.2318 105.409C71.2558 104.849 72.4238 104.569 73.7358 104.569C75.4158 104.569 76.8158 105.009 77.9358 105.889C79.0718 106.769 79.8158 108.009 80.1678 109.609H75.7998C75.4318 108.585 74.7198 108.073 73.6638 108.073C72.9118 108.073 72.3118 108.369 71.8638 108.961C71.4158 109.537 71.1918 110.369 71.1918 111.457C71.1918 112.545 71.4158 113.385 71.8638 113.977C72.3118 114.553 72.9118 114.841 73.6638 114.841C74.7198 114.841 75.4318 114.329 75.7998 113.305H80.1678C79.8158 114.873 79.0718 116.105 77.9358 117.001C76.7998 117.897 75.3998 118.345 73.7358 118.345C72.4238 118.345 71.2558 118.065 70.2318 117.505C69.2238 116.945 68.4318 116.145 67.8558 115.105C67.2958 114.065 67.0158 112.849 67.0158 111.457ZM90.547 118.153L86.467 112.537V118.153H82.363V100.393H86.467V110.209L90.523 104.761H95.587L90.019 111.481L95.635 118.153H90.547ZM102.647 118.345C101.479 118.345 100.439 118.145 99.5269 117.745C98.6149 117.345 97.8949 116.801 97.3669 116.113C96.8389 115.409 96.5429 114.625 96.4789 113.761H100.535C100.583 114.225 100.799 114.601 101.183 114.889C101.567 115.177 102.039 115.321 102.599 115.321C103.111 115.321 103.503 115.225 103.775 115.033C104.063 114.825 104.207 114.561 104.207 114.241C104.207 113.857 104.007 113.577 103.607 113.401C103.207 113.209 102.559 113.001 101.663 112.777C100.703 112.553 99.9029 112.321 99.2629 112.081C98.6229 111.825 98.0709 111.433 97.6069 110.905C97.1429 110.361 96.9109 109.633 96.9109 108.721C96.9109 107.953 97.1189 107.257 97.5349 106.633C97.9669 105.993 98.5909 105.489 99.4069 105.121C100.239 104.753 101.223 104.569 102.359 104.569C104.039 104.569 105.359 104.985 106.319 105.817C107.295 106.649 107.855 107.753 107.999 109.129H104.207C104.143 108.665 103.935 108.297 103.583 108.025C103.247 107.753 102.799 107.617 102.239 107.617C101.759 107.617 101.391 107.713 101.135 107.905C100.879 108.081 100.751 108.329 100.751 108.649C100.751 109.033 100.951 109.321 101.351 109.513C101.767 109.705 102.407 109.897 103.271 110.089C104.263 110.345 105.071 110.601 105.695 110.857C106.319 111.097 106.863 111.497 107.327 112.057C107.807 112.601 108.055 113.337 108.071 114.265C108.071 115.049 107.847 115.753 107.399 116.377C106.967 116.985 106.335 117.465 105.503 117.817C104.687 118.169 103.735 118.345 102.647 118.345ZM117.732 103.369C117.012 103.369 116.42 103.161 115.956 102.745C115.508 102.313 115.284 101.785 115.284 101.161C115.284 100.521 115.508 99.993 115.956 99.577C116.42 99.145 117.012 98.929 117.732 98.929C118.436 98.929 119.012 99.145 119.46 99.577C119.924 99.993 120.156 100.521 120.156 101.161C120.156 101.785 119.924 102.313 119.46 102.745C119.012 103.161 118.436 103.369 117.732 103.369ZM119.772 104.761V118.153H115.668V104.761H119.772ZM130.906 104.617C132.474 104.617 133.722 105.129 134.65 106.153C135.594 107.161 136.066 108.553 136.066 110.329V118.153H131.986V110.881C131.986 109.985 131.754 109.289 131.29 108.793C130.826 108.297 130.202 108.049 129.418 108.049C128.634 108.049 128.01 108.297 127.546 108.793C127.082 109.289 126.85 109.985 126.85 110.881V118.153H122.746V104.761H126.85V106.537C127.266 105.945 127.826 105.481 128.53 105.145C129.234 104.793 130.026 104.617 130.906 104.617ZM143.188 111.433C143.188 110.057 143.444 108.849 143.956 107.809C144.484 106.769 145.196 105.969 146.092 105.409C146.988 104.849 147.988 104.569 149.092 104.569C150.036 104.569 150.86 104.761 151.564 105.145C152.284 105.529 152.836 106.033 153.22 106.657V104.761H157.324V118.153H153.22V116.257C152.82 116.881 152.26 117.385 151.54 117.769C150.836 118.153 150.012 118.345 149.068 118.345C147.98 118.345 146.988 118.065 146.092 117.505C145.196 116.929 144.484 116.121 143.956 115.081C143.444 114.025 143.188 112.809 143.188 111.433ZM153.22 111.457C153.22 110.433 152.932 109.625 152.356 109.033C151.796 108.441 151.108 108.145 150.292 108.145C149.476 108.145 148.78 108.441 148.204 109.033C147.644 109.609 147.364 110.409 147.364 111.433C147.364 112.457 147.644 113.273 148.204 113.881C148.78 114.473 149.476 114.769 150.292 114.769C151.108 114.769 151.796 114.473 152.356 113.881C152.932 113.289 153.22 112.481 153.22 111.457ZM181.195 101.305L175.219 118.153H170.083L164.107 101.305H168.475L172.651 114.025L176.851 101.305H181.195ZM182.094 111.433C182.094 110.057 182.35 108.849 182.862 107.809C183.39 106.769 184.102 105.969 184.998 105.409C185.894 104.849 186.894 104.569 187.998 104.569C188.942 104.569 189.766 104.761 190.47 105.145C191.19 105.529 191.742 106.033 192.126 106.657V104.761H196.23V118.153H192.126V116.257C191.726 116.881 191.166 117.385 190.446 117.769C189.742 118.153 188.918 118.345 187.974 118.345C186.886 118.345 185.894 118.065 184.998 117.505C184.102 116.929 183.39 116.121 182.862 115.081C182.35 114.025 182.094 112.809 182.094 111.433ZM192.126 111.457C192.126 110.433 191.838 109.625 191.262 109.033C190.702 108.441 190.014 108.145 189.198 108.145C188.382 108.145 187.686 108.441 187.11 109.033C186.55 109.609 186.27 110.409 186.27 111.433C186.27 112.457 186.55 113.273 187.11 113.881C187.686 114.473 188.382 114.769 189.198 114.769C190.014 114.769 190.702 114.473 191.262 113.881C191.838 113.289 192.126 112.481 192.126 111.457ZM207.359 104.617C208.927 104.617 210.175 105.129 211.103 106.153C212.047 107.161 212.519 108.553 212.519 110.329V118.153H208.439V110.881C208.439 109.985 208.207 109.289 207.743 108.793C207.279 108.297 206.655 108.049 205.871 108.049C205.087 108.049 204.463 108.297 203.999 108.793C203.535 109.289 203.303 109.985 203.303 110.881V118.153H199.199V104.761H203.303V106.537C203.719 105.945 204.279 105.481 204.983 105.145C205.687 104.793 206.479 104.617 207.359 104.617Z" fill="#474747"/>
</svg>
