<?xml version="1.0" encoding="UTF-8" standalone="no"?>
<svg
   xmlns:dc="http://purl.org/dc/elements/1.1/"
   xmlns:cc="http://creativecommons.org/ns#"
   xmlns:rdf="http://www.w3.org/1999/02/22-rdf-syntax-ns#"
   xmlns:svg="http://www.w3.org/2000/svg"
   xmlns="http://www.w3.org/2000/svg"
   xmlns:sodipodi="http://sodipodi.sourceforge.net/DTD/sodipodi-0.dtd"
   xmlns:inkscape="http://www.inkscape.org/namespaces/inkscape"
   width="85.83004mm"
   height="38.042904mm"
   viewBox="0 0 85.83004 38.042904"
   version="1.1"
   id="svg8"
   inkscape:version="1.0.1 (c497b03c, 2020-09-10)"
   sodipodi:docname="OrderWarning.svg">
  <defs
     id="defs2" />
  <sodipodi:namedview
     id="base"
     pagecolor="#ffffff"
     bordercolor="#666666"
     borderopacity="1.0"
     inkscape:pageopacity="0.0"
     inkscape:pageshadow="2"
     inkscape:zoom="1.2474536"
     inkscape:cx="171.70339"
     inkscape:cy="179.45864"
     inkscape:document-units="mm"
     inkscape:current-layer="layer1"
     inkscape:document-rotation="0"
     showgrid="false"
     fit-margin-top="0"
     fit-margin-left="0"
     fit-margin-right="0"
     fit-margin-bottom="0"
     inkscape:window-width="1252"
     inkscape:window-height="800"
     inkscape:window-x="0"
     inkscape:window-y="23"
     inkscape:window-maximized="0" />
  <metadata
     id="metadata5">
    <rdf:RDF>
      <cc:Work
         rdf:about="">
        <dc:format>image/svg+xml</dc:format>
        <dc:type
           rdf:resource="http://purl.org/dc/dcmitype/StillImage" />
        <dc:title></dc:title>
      </cc:Work>
    </rdf:RDF>
  </metadata>
  <g
     inkscape:label="Layer 1"
     inkscape:groupmode="layer"
     id="layer1"
     transform="translate(-89.33368,-68.616495)">
    <g
       style="fill:none"
       id="g871"
       transform="matrix(0.26564166,0,0,0.26458333,112.4584,68.394803)">
      <path
         d="M 87.4233,53.0698 H 73.7397 v 4.5418 h 13.6836 z"
         fill="#000000"
         fill-opacity="0.3"
         id="path833" />
      <path
         d="M 87.4233,60.6396 H 73.7397 v 4.5421 h 13.6836 z"
         fill="#000000"
         fill-opacity="0.3"
         id="path835" />
      <path
         d="m 87.4234,68.2095 h -4.5611 v 4.5418 h 4.5611 z"
         fill="#000000"
         fill-opacity="0.3"
         id="path837" />
      <path
         d="m 60.8162,60.6396 h -6.9939 v 4.5421 h 6.9939 z"
         fill="#000000"
         fill-opacity="0.3"
         id="path839" />
      <path
         d="M 39.2264,47.771 H 34.665 v 4.5418 h 4.5614 z"
         fill="#000000"
         fill-opacity="0.3"
         id="path841" />
      <path
         d="m 64.465,19.0054 h -9.1225 c -2.934,0 -5.3215,2.3771 -5.3215,5.299 v 9.0838 c 0,2.9216 2.3872,5.299 5.3215,5.299 h 9.1225 c 2.934,0 5.3215,-2.3771 5.3215,-5.299 v -9.0838 c 0,-2.9216 -2.3872,-5.299 -5.3215,-5.299 z m 0.7604,14.3828 c 0,0.4176 -0.3408,0.7569 -0.7601,0.7569 h -9.1225 c -0.4194,0 -0.7601,-0.3393 -0.7601,-0.7569 v -9.0838 c 0,-0.4176 0.3407,-0.757 0.7601,-0.757 h 9.1225 c 0.4193,0 0.7601,0.3394 0.7601,0.757 z"
         fill="#070707"
         fill-opacity="0.3"
         id="path843" />
      <path
         d="m 30.4082,68.9668 c -3.7725,0 -6.8418,3.0563 -6.8418,6.8128 0,3.7565 3.0693,6.8129 6.8418,6.8129 3.7724,0 6.8418,-3.0564 6.8418,-6.8129 0,-3.7565 -3.0694,-6.8128 -6.8418,-6.8128 z m 0,9.0839 c -1.2578,0 -2.2807,-1.0186 -2.2807,-2.2711 0,-1.2524 1.0229,-2.271 2.2807,-2.271 1.2578,0 2.2807,1.0186 2.2807,2.271 0,1.2522 -1.0229,2.2711 -2.2807,2.2711 z"
         fill="#000000"
         fill-opacity="0.3"
         id="path845" />
      <path
         d="m 119.352,68.9668 c -3.772,0 -6.842,3.0563 -6.842,6.8128 0,3.7565 3.07,6.8129 6.842,6.8129 3.772,0 6.842,-3.0564 6.842,-6.8129 0,-3.7565 -3.07,-6.8128 -6.842,-6.8128 z m 0,9.0839 c -1.258,0 -2.281,-1.0186 -2.281,-2.2711 0,-1.2524 1.023,-2.271 2.281,-2.271 1.258,0 2.281,1.0186 2.281,2.271 0,1.2522 -1.023,2.2711 -2.281,2.2711 z"
         fill="#000000"
         fill-opacity="0.3"
         id="path847" />
      <path
         d="M 30.5807,16.8857 22.7983,43.2289 H 41.5069 V 16.8857 Z m 6.3651,21.8014 h -8.051 l 5.0986,-17.2593 h 2.9524 z"
         fill="#000000"
         fill-opacity="0.3"
         id="path849" />
      <path
         d="M 137.597,0.837891 H 31.1684 c -6.2877,0 -11.4032,5.093539 -11.4032,11.354909 v 2.271 h 3.794 L 15.4867,41.7934 0,55.0557 v 26.0229 h 16.9845 c 2.1239,5.3149 7.3383,9.0839 13.4237,9.0839 6.0854,0 11.2999,-3.769 13.4237,-9.0839 h 16.9845 v -4.5418 h -4.1196 l -2.0732,-3.7849 h 9.9941 v 8.327 h 6.0816 v 8.3269 h 4.5611 v -8.3269 h 10.6428 v 8.3269 h 4.561 v -8.3269 h 6.0817 v -8.327 h 8.6871 c -0.211,0.9769 -0.325,1.9894 -0.325,3.028 0,0.2541 0.007,0.5062 0.02,0.7569 h -4.581 v 4.5418 h 5.582 c 2.123,5.3149 7.338,9.0839 13.423,9.0839 6.086,0 11.3,-3.769 13.424,-9.0839 H 149 V 14.4635 12.1925 C 149,5.93143 143.885,0.837891 137.597,0.837891 Z M 31.1684,5.37968 H 137.597 c 2.973,0 5.509,1.89867 6.451,4.54179 H 89.1352 L 79.0233,26.7032 v 3.9599 c 0,4.2334 3.31,7.7091 7.4881,8.0015 v 6.0782 H 75.8686 V 14.4633 H 84.231 V 9.92147 H 24.901 24.7174 C 25.6588,7.27835 28.195,5.37968 31.1684,5.37968 Z M 129.127,25.0613 125.296,14.4635 h 3.37 l 6.386,10.5978 z m 7.672,4.542 v 1.0598 c 0,1.9201 -1.569,3.482 -3.497,3.482 -1.929,0 -3.497,-1.5622 -3.497,-3.482 v -1.0598 z m -18.549,0 h 6.994 v 1.0598 c 0,1.9201 -1.569,3.482 -3.497,3.482 -1.928,0 -3.497,-1.5622 -3.497,-3.482 z m -0.257,-4.542 -1.278,-10.5978 h 3.733 l 3.831,10.5978 z m -4.305,4.542 v 1.0598 c 0,1.9201 -1.568,3.482 -3.496,3.482 -1.928,0 -3.497,-1.5622 -3.497,-3.482 v -1.0598 z m -6.704,-4.542 1.278,-10.5978 h 3.859 l 1.278,10.5978 z m -10.8802,0 3.8315,-10.5978 h 3.7327 l -1.277,10.5978 z m 6.0292,4.542 v 1.0598 c 0,1.9201 -1.568,3.482 -3.4965,3.482 -1.9282,0 -3.4968,-1.5622 -3.4968,-3.482 v -1.0598 z m -16.8014,-4.542 6.3858,-10.5978 h 3.3702 l -3.8315,10.5978 z m 5.2467,4.542 v 1.0598 c 0,1.9201 -1.5688,3.482 -3.4968,3.482 -1.9283,0 -3.4969,-1.5622 -3.4969,-3.482 V 29.6033 Z M 15.9843,76.5365 H 4.56109 V 72.7516 H 16.289 c -0.211,0.9769 -0.3248,1.9894 -0.3248,3.028 0,0.2538 0.007,0.5063 0.0201,0.7569 z m 14.4239,9.0839 c -5.4495,0 -9.8826,-4.4146 -9.8826,-9.8408 0,-5.4265 4.4334,-9.8408 9.8826,-9.8408 5.4493,0 9.8826,4.4146 9.8826,9.8408 0,5.4262 -4.4333,9.8408 -9.8826,9.8408 z M 42.6821,68.2096 c -2.5508,-4.0857 -7.0976,-6.8129 -12.2739,-6.8129 -5.1763,0 -9.7234,2.7272 -12.2739,6.8129 H 4.56138 V 65.9385 H 9.88289 V 61.3964 H 4.56109 V 57.1398 L 19.4823,44.3618 28.3132,14.4633 h 15.6264 v 48.2691 l 3.0001,5.4769 h -4.2576 z m 2.1497,8.3269 c 0.0131,-0.2506 0.0201,-0.5031 0.0201,-0.7569 0,-1.0386 -0.1138,-2.0511 -0.3248,-3.028 h 4.9007 l 2.0732,3.7849 z M 64.6174,53.0698 H 53.8225 v 4.5418 H 64.6174 V 68.2093 H 52.1354 L 48.501,61.5744 V 14.4635 h 22.806 v 30.2796 h -6.6899 v 8.3267 z M 91.9848,76.5365 H 69.1788 V 49.2849 h 22.806 z m 27.3672,9.0839 c -5.45,0 -9.883,-4.4146 -9.883,-9.8408 0,-5.4265 4.434,-9.8408 9.883,-9.8408 5.449,0 9.883,4.4146 9.883,9.8408 0,5.4262 -4.434,9.8408 -9.883,9.8408 z m 25.087,-9.0839 h -10.663 c 0.013,-0.2506 0.02,-0.5031 0.02,-0.7569 0,-1.0386 -0.114,-2.0511 -0.325,-3.028 h 10.968 z m 0,-15.1398 h -5.322 v 4.5421 h 5.322 v 2.2711 h -12.813 c -2.551,-4.0857 -7.098,-6.8129 -12.274,-6.8129 -5.176,0 -9.723,2.7272 -12.274,6.8129 H 96.5462 v -8.327 H 139.079 V 55.3411 H 114.36 c 0.172,-0.4822 0.291,-0.9893 0.35,-1.5138 h 2.323 v -4.5418 h -2.28 v -3.028 h -13.684 v 6.8129 c 0,0.796 0.139,1.5602 0.392,2.271 H 96.5459 V 44.7437 h -5.4734 v -7.1142 c 0.6591,-0.3762 1.2604,-0.8418 1.7865,-1.3811 1.4653,1.5025 3.5132,2.4388 5.7775,2.4388 2.2645,0 4.3125,-0.9363 5.7775,-2.4388 1.465,1.5025 3.513,2.4388 5.778,2.4388 2.264,0 4.312,-0.9363 5.777,-2.4388 1.465,1.5025 3.513,2.4388 5.778,2.4388 2.264,0 4.312,-0.9363 5.777,-2.4388 0.526,0.5393 1.127,1.0049 1.787,1.3811 V 51.556 h 4.561 V 38.6649 c 4.178,-0.2924 7.488,-3.7684 7.488,-8.0015 v -3.9596 l -7.375,-12.24 h 10.454 z M 105.63,53.0698 v -2.2711 h 4.561 v 2.2711 c 0,1.2524 -1.023,2.271 -2.28,2.271 -1.258,0 -2.281,-1.0186 -2.281,-2.271 z"
         fill="#000000"
         fill-opacity="0.3"
         id="path851" />
    </g>
    <g
       style="fill:none"
       id="g884"
       transform="matrix(0.26458333,0,0,0.26458333,89.122014,100.6269)">
      <path
         d="m 7.736,1.2 c 0.816,0 1.592,0.248 2.328,0.744 0.736,0.48 1.328,1.136 1.776,1.968 0.448,0.816 0.672,1.712 0.672,2.688 0,0.96 -0.224,1.856 -0.672,2.688 C 11.392,10.12 10.8,10.784 10.064,11.28 9.328,11.76 8.552,12 7.736,12 H 3.56 v 4.536 c 0,0.432 -0.128,0.784 -0.384,1.056 C 2.92,17.864 2.584,18 2.168,18 1.768,18 1.44,17.864 1.184,17.592 0.928,17.304 0.8,16.952 0.8,16.536 V 2.664 C 0.8,2.248 0.936,1.904 1.208,1.632 1.496,1.344 1.848,1.2 2.264,1.2 Z m 0,8.064 C 8.04,9.264 8.336,9.136 8.624,8.88 8.928,8.624 9.168,8.296 9.344,7.896 9.536,7.48 9.632,7.048 9.632,6.6 9.632,6.152 9.536,5.728 9.344,5.328 9.168,4.912 8.928,4.584 8.624,4.344 8.336,4.088 8.04,3.96 7.736,3.96 H 3.56 v 5.304 z m 10.4049,7.272 c 0,0.416 -0.144,0.768 -0.432,1.056 -0.272,0.272 -0.616,0.408 -1.032,0.408 -0.4,0 -0.736,-0.136 -1.008,-0.408 -0.272,-0.288 -0.408,-0.64 -0.408,-1.056 V 1.704 c 0,-0.416 0.136,-0.760001 0.408,-1.032001 0.288,-0.288 0.64,-0.431999 1.056,-0.431999 0.4,0 0.736,0.143999 1.008,0.431999 0.272,0.272 0.408,0.616001 0.408,1.032001 z M 32.7753,11.28 c -0.016,0.384 -0.168,0.696 -0.456,0.936 -0.288,0.24 -0.624,0.36 -1.008,0.36 h -7.92 c 0.192,0.944 0.632,1.688 1.32,2.232 0.688,0.528 1.464,0.792 2.328,0.792 0.656,0 1.168,-0.056 1.536,-0.168 0.368,-0.128 0.656,-0.256 0.864,-0.384 0.224,-0.144 0.376,-0.24 0.456,-0.288 0.288,-0.144 0.56,-0.216 0.816,-0.216 0.336,0 0.624,0.12 0.864,0.36 0.24,0.24 0.36,0.52 0.36,0.84 0,0.432 -0.224,0.824 -0.672,1.176 -0.448,0.368 -1.048,0.68 -1.8,0.936 -0.752,0.256 -1.512,0.384 -2.28,0.384 -1.344,0 -2.52,-0.28 -3.528,-0.84 -0.992,-0.56 -1.76,-1.328 -2.304,-2.304 -0.544,-0.992 -0.816,-2.104 -0.816,-3.336 0,-1.376 0.288,-2.584 0.864,-3.624 0.576,-1.04 1.336,-1.832 2.28,-2.376 0.944,-0.56 1.952,-0.84 3.024,-0.84 1.056,0 2.048,0.288 2.976,0.864 0.944,0.576 1.696,1.352 2.256,2.328 0.56,0.976 0.84,2.032 0.84,3.168 z m -6.072,-3.72 c -1.856,0 -2.952,0.872 -3.288,2.616 h 6.288 V 10.008 C 29.6393,9.336 29.3113,8.76 28.7193,8.28 28.1273,7.8 27.4553,7.56 26.7033,7.56 Z M 45.6629,4.92 c 0.416,0 0.76,0.136 1.032,0.408 0.272,0.272 0.408,0.624 0.408,1.056 v 10.152 c 0,0.416 -0.136,0.768 -0.408,1.056 -0.272,0.272 -0.616,0.408 -1.032,0.408 -0.416,0 -0.76,-0.136 -1.032,-0.408 -0.256,-0.272 -0.392,-0.616 -0.408,-1.032 -0.4,0.464 -0.944,0.864 -1.632,1.2 -0.672,0.32 -1.384,0.48 -2.136,0.48 -1.104,0 -2.104,-0.28 -3,-0.84 -0.896,-0.576 -1.608,-1.368 -2.136,-2.376 -0.512,-1.008 -0.768,-2.152 -0.768,-3.432 0,-1.28 0.256,-2.424 0.768,-3.432 0.512,-1.024 1.208,-1.816 2.088,-2.376 0.896,-0.576 1.88,-0.864 2.952,-0.864 0.768,0 1.488,0.144 2.16,0.432 0.672,0.272 1.24,0.624 1.704,1.056 V 6.384 c 0,-0.416 0.136,-0.76 0.408,-1.032 0.272,-0.288 0.616,-0.432 1.032,-0.432 z m -4.848,10.68 c 1.04,0 1.888,-0.376 2.544,-1.128 0.656,-0.768 0.984,-1.728 0.984,-2.88 0,-1.152 -0.328,-2.112 -0.984,-2.88 -0.656,-0.768 -1.504,-1.152 -2.544,-1.152 -1.024,0 -1.864,0.384 -2.52,1.152 -0.656,0.768 -0.984,1.728 -0.984,2.88 0,1.152 0.32,2.112 0.96,2.88 0.656,0.752 1.504,1.128 2.544,1.128 z m 8.6652,0.408 c -0.144,-0.192 -0.216,-0.432 -0.216,-0.72 0,-0.416 0.208,-0.768 0.624,-1.056 0.224,-0.144 0.456,-0.216 0.696,-0.216 0.336,0 0.656,0.152 0.96,0.456 0.48,0.496 0.976,0.864 1.488,1.104 0.528,0.24 1.16,0.36 1.896,0.36 1.248,-0.048 1.872,-0.52 1.872,-1.416 0,-0.464 -0.216,-0.816 -0.648,-1.056 -0.416,-0.24 -1.072,-0.48 -1.968,-0.72 -0.928,-0.256 -1.688,-0.512 -2.28,-0.768 -0.576,-0.256 -1.08,-0.64 -1.512,-1.152 -0.416,-0.528 -0.624,-1.232 -0.624,-2.112 0,-0.768 0.216,-1.432 0.648,-1.992 0.448,-0.576 1.024,-1.016 1.728,-1.32 0.72,-0.32 1.48,-0.48 2.28,-0.48 0.816,0 1.632,0.152 2.448,0.456 0.816,0.304 1.456,0.752 1.92,1.344 0.208,0.256 0.312,0.544 0.312,0.864 0,0.368 -0.152,0.672 -0.456,0.912 -0.224,0.176 -0.48,0.264 -0.768,0.264 -0.352,0 -0.64,-0.112 -0.864,-0.336 -0.288,-0.352 -0.664,-0.632 -1.128,-0.84 -0.448,-0.208 -0.96,-0.312 -1.536,-0.312 -1.216,0 -1.824,0.44 -1.824,1.32 0,0.352 0.112,0.64 0.336,0.864 0.224,0.208 0.504,0.376 0.84,0.504 0.352,0.112 0.84,0.256 1.464,0.432 0.864,0.24 1.584,0.488 2.16,0.744 0.576,0.256 1.064,0.648 1.464,1.176 0.4,0.528 0.6,1.224 0.6,2.088 0,0.784 -0.232,1.472 -0.696,2.064 -0.464,0.576 -1.064,1.016 -1.8,1.32 -0.72,0.304 -1.464,0.456 -2.232,0.456 -1.056,0 -2.04,-0.176 -2.952,-0.528 -0.912,-0.352 -1.656,-0.92 -2.232,-1.704 z M 73.3222,11.28 c -0.016,0.384 -0.168,0.696 -0.456,0.936 -0.288,0.24 -0.624,0.36 -1.008,0.36 h -7.92 c 0.192,0.944 0.632,1.688 1.32,2.232 0.688,0.528 1.464,0.792 2.328,0.792 0.656,0 1.168,-0.056 1.536,-0.168 0.368,-0.128 0.656,-0.256 0.864,-0.384 0.224,-0.144 0.376,-0.24 0.456,-0.288 0.288,-0.144 0.56,-0.216 0.816,-0.216 0.336,0 0.624,0.12 0.864,0.36 0.24,0.24 0.36,0.52 0.36,0.84 0,0.432 -0.224,0.824 -0.672,1.176 -0.448,0.368 -1.048,0.68 -1.8,0.936 -0.752,0.256 -1.512,0.384 -2.28,0.384 -1.344,0 -2.52,-0.28 -3.528,-0.84 -0.992,-0.56 -1.76,-1.328 -2.304,-2.304 -0.544,-0.992 -0.816,-2.104 -0.816,-3.336 0,-1.376 0.288,-2.584 0.864,-3.624 0.576,-1.04 1.336,-1.832 2.28,-2.376 0.944,-0.56 1.952,-0.84 3.024,-0.84 1.056,0 2.048,0.288 2.976,0.864 0.944,0.576 1.696,1.352 2.256,2.328 0.56,0.976 0.84,2.032 0.84,3.168 z m -6.072,-3.72 c -1.856,0 -2.952,0.872 -3.288,2.616 h 6.288 V 10.008 C 70.1862,9.336 69.8582,8.76 69.2662,8.28 68.6742,7.8 68.0022,7.56 67.2502,7.56 Z m 24.7044,7.632 c 0.416,0 0.76,0.136 1.032,0.408 0.288,0.256 0.432,0.592 0.432,1.008 0,0.4 -0.144,0.736 -0.432,1.008 -0.272,0.256 -0.616,0.384 -1.032,0.384 h -7.8 c -0.416,0 -0.768,-0.136 -1.056,-0.408 -0.272,-0.288 -0.408,-0.64 -0.408,-1.056 V 2.664 c 0,-0.416 0.144,-0.76 0.432,-1.032 0.288,-0.288 0.656,-0.432 1.104,-0.432 0.4,0 0.744,0.144 1.032,0.432 0.288,0.272 0.432,0.616 0.432,1.032 v 12.528 z m 16.3084,-3.6 c 0,1.28 -0.288,2.432 -0.864,3.456 -0.576,1.008 -1.368,1.792 -2.376,2.352 -0.992,0.56 -2.088,0.84 -3.288,0.84 -1.216,0 -2.3198,-0.28 -3.3118,-0.84 -0.992,-0.56 -1.776,-1.344 -2.352,-2.352 -0.576,-1.024 -0.864,-2.176 -0.864,-3.456 0,-1.28 0.288,-2.424 0.864,-3.432 0.576,-1.024 1.36,-1.816 2.352,-2.376 0.992,-0.576 2.0958,-0.864 3.3118,-0.864 1.2,0 2.296,0.288 3.288,0.864 1.008,0.56 1.8,1.352 2.376,2.376 0.576,1.008 0.864,2.152 0.864,3.432 z m -2.88,0 c 0,-0.784 -0.168,-1.48 -0.504,-2.088 -0.32,-0.624 -0.76,-1.104 -1.32,-1.44 -0.544,-0.336 -1.152,-0.504 -1.824,-0.504 -0.672,0 -1.288,0.168 -1.8478,0.504 -0.544,0.336 -0.984,0.816 -1.32,1.44 -0.32,0.608 -0.48,1.304 -0.48,2.088 0,0.784 0.16,1.48 0.48,2.088 0.336,0.608 0.776,1.08 1.32,1.416 0.5598,0.336 1.1758,0.504 1.8478,0.504 0.672,0 1.28,-0.168 1.824,-0.504 0.56,-0.336 1,-0.808 1.32,-1.416 0.336,-0.608 0.504,-1.304 0.504,-2.088 z M 121.301,4.92 c 0.416,0 0.76,0.136 1.032,0.408 0.272,0.272 0.408,0.624 0.408,1.056 v 10.68 c 0,1.952 -0.608,3.392 -1.824,4.32 -1.2,0.944 -2.728,1.416 -4.584,1.416 -0.48,0 -1.144,-0.08 -1.992,-0.24 -0.832,-0.16 -1.424,-0.32 -1.776,-0.48 -0.784,-0.336 -1.176,-0.8 -1.176,-1.392 0,-0.112 0.024,-0.24 0.072,-0.384 0.096,-0.352 0.256,-0.624 0.48,-0.816 0.24,-0.176 0.496,-0.264 0.768,-0.264 0.16,0 0.312,0.024 0.456,0.072 0.064,0.016 0.456,0.16 1.176,0.432 0.736,0.288 1.4,0.432 1.992,0.432 1.184,0 2.064,-0.24 2.64,-0.72 0.592,-0.464 0.888,-1.128 0.888,-1.992 v -1.152 c -0.352,0.496 -0.888,0.944 -1.608,1.344 -0.704,0.4 -1.464,0.6 -2.28,0.6 -1.12,0 -2.144,-0.28 -3.072,-0.84 -0.912,-0.576 -1.632,-1.368 -2.16,-2.376 -0.528,-1.008 -0.792,-2.152 -0.792,-3.432 0,-1.28 0.256,-2.424 0.768,-3.432 0.528,-1.024 1.24,-1.816 2.136,-2.376 0.912,-0.576 1.92,-0.864 3.024,-0.864 0.816,0 1.576,0.168 2.28,0.504 0.704,0.336 1.272,0.744 1.704,1.224 V 6.384 c 0,-0.416 0.136,-0.76 0.408,-1.032 0.272,-0.288 0.616,-0.432 1.032,-0.432 z m -4.968,10.68 c 1.072,0 1.944,-0.376 2.616,-1.128 0.688,-0.768 1.032,-1.728 1.032,-2.88 0,-1.152 -0.344,-2.112 -1.032,-2.88 -0.672,-0.768 -1.544,-1.152 -2.616,-1.152 -1.072,0 -1.944,0.384 -2.616,1.152 -0.672,0.768 -1.008,1.728 -1.008,2.88 0,1.152 0.336,2.112 1.008,2.88 0.672,0.752 1.544,1.128 2.616,1.128 z m 18.962,0.936 c 0,0.416 -0.136,0.768 -0.408,1.056 -0.272,0.272 -0.616,0.408 -1.032,0.408 -0.416,0 -0.76,-0.136 -1.032,-0.408 -0.272,-0.288 -0.408,-0.64 -0.408,-1.056 V 6.624 c 0,-0.416 0.136,-0.76 0.408,-1.032 0.272,-0.288 0.616,-0.432 1.032,-0.432 0.416,0 0.76,0.144 1.032,0.432 0.272,0.272 0.408,0.616 0.408,1.032 z M 133.831,3.6 c -0.544,0 -0.928,-0.088 -1.152,-0.264 C 132.455,3.16 132.343,2.848 132.343,2.4 V 1.944 c 0,-0.448 0.12,-0.76 0.36,-0.936 0.24,-0.176001 0.624,-0.264001 1.152,-0.264001 0.56,0 0.952,0.088 1.176,0.264001 0.224,0.176 0.336,0.488 0.336,0.936 V 2.4 c 0,0.464 -0.12,0.784 -0.36,0.96 -0.224,0.16 -0.616,0.24 -1.176,0.24 z m 11.288,1.32 c 1.632,0 2.76,0.488 3.384,1.464 0.624,0.96 0.936,2.296 0.936,4.008 v 6.144 c 0,0.416 -0.136,0.768 -0.408,1.056 -0.272,0.272 -0.616,0.408 -1.032,0.408 -0.416,0 -0.76,-0.136 -1.032,-0.408 -0.272,-0.288 -0.408,-0.64 -0.408,-1.056 v -6.144 c 0,-0.88 -0.184,-1.568 -0.552,-2.064 -0.368,-0.512 -1,-0.768 -1.896,-0.768 -0.928,0 -1.656,0.272 -2.184,0.816 -0.528,0.528 -0.792,1.2 -0.792,2.016 v 6.144 c 0,0.416 -0.136,0.768 -0.408,1.056 -0.272,0.272 -0.616,0.408 -1.032,0.408 -0.416,0 -0.76,-0.136 -1.032,-0.408 -0.272,-0.288 -0.408,-0.64 -0.408,-1.056 V 6.624 c 0,-0.416 0.136,-0.76 0.408,-1.032 0.272,-0.288 0.616,-0.432 1.032,-0.432 0.416,0 0.76,0.144 1.032,0.432 0.272,0.272 0.408,0.616 0.408,1.032 v 0.408 c 0.432,-0.576 0.992,-1.072 1.68,-1.488 0.704,-0.416 1.472,-0.624 2.304,-0.624 z m 20.352,10.368 c 0.224,0 0.424,0.112 0.6,0.336 0.192,0.208 0.288,0.488 0.288,0.84 0,0.432 -0.24,0.8 -0.72,1.104 -0.464,0.288 -0.992,0.432 -1.584,0.432 -0.992,0 -1.832,-0.208 -2.52,-0.624 -0.672,-0.432 -1.008,-1.336 -1.008,-2.712 V 8.04 h -1.104 c -0.384,0 -0.704,-0.128 -0.96,-0.384 -0.256,-0.256 -0.384,-0.576 -0.384,-0.96 0,-0.368 0.128,-0.672 0.384,-0.912 0.256,-0.256 0.576,-0.384 0.96,-0.384 h 1.104 V 3.864 c 0,-0.416 0.136,-0.76 0.408,-1.032 0.288,-0.288 0.64,-0.432 1.056,-0.432 0.4,0 0.736,0.144 1.008,0.432 0.272,0.272 0.408,0.616 0.408,1.032 V 5.4 h 1.704 c 0.384,0 0.704,0.128 0.96,0.384 0.256,0.256 0.384,0.576 0.384,0.96 0,0.368 -0.128,0.68 -0.384,0.936 -0.256,0.24 -0.576,0.36 -0.96,0.36 h -1.704 v 6.504 c 0,0.336 0.088,0.584 0.264,0.744 0.176,0.144 0.416,0.216 0.72,0.216 0.128,0 0.304,-0.032 0.528,-0.096 0.192,-0.08 0.376,-0.12 0.552,-0.12 z m 15.847,-3.696 c 0,1.28 -0.288,2.432 -0.864,3.456 -0.576,1.008 -1.368,1.792 -2.376,2.352 -0.992,0.56 -2.088,0.84 -3.288,0.84 -1.216,0 -2.32,-0.28 -3.312,-0.84 -0.992,-0.56 -1.776,-1.344 -2.352,-2.352 -0.576,-1.024 -0.864,-2.176 -0.864,-3.456 0,-1.28 0.288,-2.424 0.864,-3.432 0.576,-1.024 1.36,-1.816 2.352,-2.376 0.992,-0.576 2.096,-0.864 3.312,-0.864 1.2,0 2.296,0.288 3.288,0.864 1.008,0.56 1.8,1.352 2.376,2.376 0.576,1.008 0.864,2.152 0.864,3.432 z m -2.88,0 c 0,-0.784 -0.168,-1.48 -0.504,-2.088 -0.32,-0.624 -0.76,-1.104 -1.32,-1.44 -0.544,-0.336 -1.152,-0.504 -1.824,-0.504 -0.672,0 -1.288,0.168 -1.848,0.504 -0.544,0.336 -0.984,0.816 -1.32,1.44 -0.32,0.608 -0.48,1.304 -0.48,2.088 0,0.784 0.16,1.48 0.48,2.088 0.336,0.608 0.776,1.08 1.32,1.416 0.56,0.336 1.176,0.504 1.848,0.504 0.672,0 1.28,-0.168 1.824,-0.504 0.56,-0.336 1,-0.808 1.32,-1.416 0.336,-0.608 0.504,-1.304 0.504,-2.088 z m 21.877,-6.408 c 0.384,0 0.704,0.128 0.96,0.384 0.256,0.24 0.384,0.544 0.384,0.912 0,0.192 -0.064,0.432 -0.192,0.72 l -4.488,9.888 c -0.112,0.272 -0.28,0.488 -0.504,0.648 -0.208,0.16 -0.448,0.248 -0.72,0.264 l -0.216,0.024 c -0.272,0 -0.528,-0.08 -0.768,-0.24 -0.224,-0.176 -0.4,-0.408 -0.528,-0.696 L 189.779,7.2 c -0.112,-0.256 -0.168,-0.512 -0.168,-0.768 0,-0.32 0.136,-0.608 0.408,-0.864 0.272,-0.272 0.608,-0.408 1.008,-0.408 0.304,0 0.584,0.08 0.84,0.24 0.256,0.16 0.448,0.384 0.576,0.672 l 3.312,7.584 3.288,-7.56 c 0.128,-0.304 0.304,-0.536 0.528,-0.696 0.224,-0.16 0.472,-0.232 0.744,-0.216 z m 6.324,11.352 c 0,0.416 -0.136,0.768 -0.408,1.056 -0.272,0.272 -0.616,0.408 -1.032,0.408 -0.416,0 -0.76,-0.136 -1.032,-0.408 -0.272,-0.288 -0.408,-0.64 -0.408,-1.056 V 6.624 c 0,-0.416 0.136,-0.76 0.408,-1.032 0.272,-0.288 0.616,-0.432 1.032,-0.432 0.416,0 0.76,0.144 1.032,0.432 0.272,0.272 0.408,0.616 0.408,1.032 z M 205.175,3.6 c -0.544,0 -0.928,-0.088 -1.152,-0.264 C 203.799,3.16 203.687,2.848 203.687,2.4 V 1.944 c 0,-0.448 0.12,-0.76 0.36,-0.936 0.24,-0.176001 0.624,-0.264001 1.152,-0.264001 0.56,0 0.952,0.088 1.176,0.264001 0.224,0.176 0.336,0.488 0.336,0.936 V 2.4 c 0,0.464 -0.12,0.784 -0.36,0.96 -0.224,0.16 -0.616,0.24 -1.176,0.24 z m 15.944,7.68 c -0.016,0.384 -0.168,0.696 -0.456,0.936 -0.288,0.24 -0.624,0.36 -1.008,0.36 h -7.92 c 0.192,0.944 0.632,1.688 1.32,2.232 0.688,0.528 1.464,0.792 2.328,0.792 0.656,0 1.168,-0.056 1.536,-0.168 0.368,-0.128 0.656,-0.256 0.864,-0.384 0.224,-0.144 0.376,-0.24 0.456,-0.288 0.288,-0.144 0.56,-0.216 0.816,-0.216 0.336,0 0.624,0.12 0.864,0.36 0.24,0.24 0.36,0.52 0.36,0.84 0,0.432 -0.224,0.824 -0.672,1.176 -0.448,0.368 -1.048,0.68 -1.8,0.936 -0.752,0.256 -1.512,0.384 -2.28,0.384 -1.344,0 -2.52,-0.28 -3.528,-0.84 -0.992,-0.56 -1.76,-1.328 -2.304,-2.304 -0.544,-0.992 -0.816,-2.104 -0.816,-3.336 0,-1.376 0.288,-2.584 0.864,-3.624 0.576,-1.04 1.336,-1.832 2.28,-2.376 0.944,-0.56 1.952,-0.84 3.024,-0.84 1.056,0 2.048,0.288 2.976,0.864 0.944,0.576 1.696,1.352 2.256,2.328 0.56,0.976 0.84,2.032 0.84,3.168 z m -6.072,-3.72 c -1.856,0 -2.952,0.872 -3.288,2.616 h 6.288 V 10.008 C 217.983,9.336 217.655,8.76 217.063,8.28 216.471,7.8 215.799,7.56 215.047,7.56 Z m 23.258,-2.4 c 0.384,0 0.704,0.144 0.96,0.432 0.272,0.272 0.408,0.624 0.408,1.056 0,0.144 -0.032,0.328 -0.096,0.552 l -3.672,9.888 c -0.096,0.288 -0.272,0.52 -0.528,0.696 -0.24,0.16 -0.504,0.24 -0.792,0.24 L 234.393,18 c -0.544,-0.032 -0.952,-0.336 -1.224,-0.912 l -2.04,-5.904 -1.944,5.904 c -0.272,0.576 -0.68,0.88 -1.224,0.912 l -0.192,0.024 c -0.288,0 -0.56,-0.08 -0.816,-0.24 -0.24,-0.176 -0.408,-0.408 -0.504,-0.696 L 222.777,7.2 c -0.064,-0.176 -0.096,-0.36 -0.096,-0.552 0,-0.4 0.128,-0.744 0.384,-1.032 0.272,-0.304 0.624,-0.456 1.056,-0.456 0.32,0 0.592,0.08 0.816,0.24 0.24,0.144 0.408,0.368 0.504,0.672 l 2.592,7.032 1.896,-5.136 c 0.256,-0.592 0.696,-0.888 1.32,-0.888 0.336,0 0.592,0.072 0.768,0.216 0.192,0.144 0.352,0.368 0.48,0.672 l 1.848,5.016 2.568,-6.912 c 0.096,-0.304 0.264,-0.528 0.504,-0.672 0.24,-0.16 0.536,-0.24 0.888,-0.24 z m 26.06,4.44 c 0,1.584 -0.352,3.04 -1.056,4.368 -0.704,1.312 -1.68,2.352 -2.928,3.12 -1.232,0.768 -2.624,1.152 -4.176,1.152 -1.552,0 -2.952,-0.384 -4.2,-1.152 -1.232,-0.768 -2.2,-1.808 -2.904,-3.12 -0.688,-1.328 -1.032,-2.784 -1.032,-4.368 0,-1.584 0.344,-3.032 1.032,-4.344 0.704,-1.328 1.672,-2.376 2.904,-3.144 1.248,-0.768 2.648,-1.152001 4.2,-1.152001 1.552,0 2.944,0.384001 4.176,1.152001 1.248,0.768 2.224,1.816 2.928,3.144 0.704,1.312 1.056,2.76 1.056,4.344 z m -3.12,0 c 0,-1.072 -0.216,-2.04 -0.648,-2.904 -0.432,-0.88 -1.032,-1.576 -1.8,-2.088 -0.768,-0.512 -1.632,-0.768 -2.592,-0.768 -0.976,0 -1.848,0.256 -2.616,0.768 -0.752,0.496 -1.344,1.184 -1.776,2.064 -0.416,0.88 -0.624,1.856 -0.624,2.928 0,1.072 0.208,2.048 0.624,2.928 0.432,0.88 1.024,1.576 1.776,2.088 0.768,0.496 1.64,0.744 2.616,0.744 0.96,0 1.824,-0.256 2.592,-0.768 0.768,-0.512 1.368,-1.2 1.8,-2.064 0.432,-0.88 0.648,-1.856 0.648,-2.928 z m 12.307,-4.68 c 0.48,0 0.88,0.136 1.2,0.408 0.336,0.272 0.504,0.592 0.504,0.96 0,0.496 -0.128,0.872 -0.384,1.128 -0.256,0.24 -0.56,0.36 -0.912,0.36 -0.24,0 -0.512,-0.056 -0.816,-0.168 -0.048,-0.016 -0.16,-0.048 -0.336,-0.096 -0.16,-0.048 -0.336,-0.072 -0.528,-0.072 -0.416,0 -0.816,0.128 -1.2,0.384 -0.384,0.256 -0.704,0.648 -0.96,1.176 -0.24,0.512 -0.36,1.128 -0.36,1.848 v 5.688 c 0,0.416 -0.136,0.768 -0.408,1.056 -0.272,0.272 -0.616,0.408 -1.032,0.408 -0.416,0 -0.76,-0.136 -1.032,-0.408 -0.272,-0.288 -0.408,-0.64 -0.408,-1.056 V 6.624 c 0,-0.416 0.136,-0.76 0.408,-1.032 0.272,-0.288 0.616,-0.432 1.032,-0.432 0.416,0 0.76,0.144 1.032,0.432 0.272,0.272 0.408,0.616 0.408,1.032 v 0.312 c 0.368,-0.656 0.896,-1.152 1.584,-1.488 0.688,-0.352 1.424,-0.528 2.208,-0.528 z M 287.14,0.24 c 0.416,0 0.76,0.135999 1.032,0.407999 0.272,0.272 0.408,0.624001 0.408,1.056001 v 14.832 c 0,0.416 -0.136,0.768 -0.408,1.056 C 287.9,17.864 287.556,18 287.14,18 c -0.416,0 -0.76,-0.136 -1.032,-0.408 -0.256,-0.272 -0.392,-0.616 -0.408,-1.032 -0.4,0.464 -0.944,0.864 -1.632,1.2 -0.672,0.32 -1.384,0.48 -2.136,0.48 -1.104,0 -2.104,-0.28 -3,-0.84 -0.896,-0.576 -1.608,-1.368 -2.136,-2.376 -0.512,-1.008 -0.768,-2.152 -0.768,-3.432 0,-1.28 0.256,-2.424 0.768,-3.432 0.512,-1.024 1.208,-1.816 2.088,-2.376 0.896,-0.576 1.88,-0.864 2.952,-0.864 0.768,0 1.488,0.144 2.16,0.432 0.672,0.272 1.24,0.624 1.704,1.056 V 1.704 c 0,-0.416 0.136,-0.760001 0.408,-1.032001 C 286.38,0.383999 286.724,0.24 287.14,0.24 Z m -4.848,15.36 c 1.04,0 1.888,-0.376 2.544,-1.128 0.656,-0.768 0.984,-1.728 0.984,-2.88 0,-1.152 -0.328,-2.112 -0.984,-2.88 -0.656,-0.768 -1.504,-1.152 -2.544,-1.152 -1.024,0 -1.864,0.384 -2.52,1.152 -0.656,0.768 -0.984,1.728 -0.984,2.88 0,1.152 0.32,2.112 0.96,2.88 0.656,0.752 1.504,1.128 2.544,1.128 z m 20.929,-4.32 c -0.016,0.384 -0.168,0.696 -0.456,0.936 -0.288,0.24 -0.624,0.36 -1.008,0.36 h -7.92 c 0.192,0.944 0.632,1.688 1.32,2.232 0.688,0.528 1.464,0.792 2.328,0.792 0.656,0 1.168,-0.056 1.536,-0.168 0.368,-0.128 0.656,-0.256 0.864,-0.384 0.224,-0.144 0.376,-0.24 0.456,-0.288 0.288,-0.144 0.56,-0.216 0.816,-0.216 0.336,0 0.624,0.12 0.864,0.36 0.24,0.24 0.36,0.52 0.36,0.84 0,0.432 -0.224,0.824 -0.672,1.176 -0.448,0.368 -1.048,0.68 -1.8,0.936 -0.752,0.256 -1.512,0.384 -2.28,0.384 -1.344,0 -2.52,-0.28 -3.528,-0.84 -0.992,-0.56 -1.76,-1.328 -2.304,-2.304 -0.544,-0.992 -0.816,-2.104 -0.816,-3.336 0,-1.376 0.288,-2.584 0.864,-3.624 0.576,-1.04 1.336,-1.832 2.28,-2.376 0.944,-0.56 1.952,-0.84 3.024,-0.84 1.056,0 2.048,0.288 2.976,0.864 0.944,0.576 1.696,1.352 2.256,2.328 0.56,0.976 0.84,2.032 0.84,3.168 z m -6.072,-3.72 c -1.856,0 -2.952,0.872 -3.288,2.616 h 6.288 V 10.008 C 300.085,9.336 299.757,8.76 299.165,8.28 298.573,7.8 297.901,7.56 297.149,7.56 Z m 15.146,-2.64 c 0.48,0 0.88,0.136 1.2,0.408 0.336,0.272 0.504,0.592 0.504,0.96 0,0.496 -0.128,0.872 -0.384,1.128 -0.256,0.24 -0.56,0.36 -0.912,0.36 -0.24,0 -0.512,-0.056 -0.816,-0.168 -0.048,-0.016 -0.16,-0.048 -0.336,-0.096 -0.16,-0.048 -0.336,-0.072 -0.528,-0.072 -0.416,0 -0.816,0.128 -1.2,0.384 -0.384,0.256 -0.704,0.648 -0.96,1.176 -0.24,0.512 -0.36,1.128 -0.36,1.848 v 5.688 c 0,0.416 -0.136,0.768 -0.408,1.056 -0.272,0.272 -0.616,0.408 -1.033,0.408 -0.415,0 -0.759,-0.136 -1.031,-0.408 -0.272,-0.288 -0.408,-0.64 -0.408,-1.056 V 6.624 c 0,-0.416 0.136,-0.76 0.408,-1.032 0.272,-0.288 0.616,-0.432 1.031,-0.432 0.417,0 0.761,0.144 1.033,0.432 0.272,0.272 0.408,0.616 0.408,1.032 v 0.312 c 0.368,-0.656 0.896,-1.152 1.584,-1.488 0.688,-0.352 1.424,-0.528 2.208,-0.528 z m 2.99,11.088 c -0.144,-0.192 -0.216,-0.432 -0.216,-0.72 0,-0.416 0.208,-0.768 0.624,-1.056 0.224,-0.144 0.456,-0.216 0.696,-0.216 0.336,0 0.656,0.152 0.96,0.456 0.48,0.496 0.976,0.864 1.488,1.104 0.528,0.24 1.16,0.36 1.896,0.36 1.248,-0.048 1.872,-0.52 1.872,-1.416 0,-0.464 -0.216,-0.816 -0.648,-1.056 -0.416,-0.24 -1.072,-0.48 -1.968,-0.72 -0.928,-0.256 -1.688,-0.512 -2.28,-0.768 -0.576,-0.256 -1.08,-0.64 -1.512,-1.152 -0.416,-0.528 -0.624,-1.232 -0.624,-2.112 0,-0.768 0.216,-1.432 0.648,-1.992 0.448,-0.576 1.024,-1.016 1.728,-1.32 0.72,-0.32 1.48,-0.48 2.28,-0.48 0.816,0 1.632,0.152 2.448,0.456 0.816,0.304 1.456,0.752 1.92,1.344 0.208,0.256 0.312,0.544 0.312,0.864 0,0.368 -0.152,0.672 -0.456,0.912 -0.224,0.176 -0.48,0.264 -0.768,0.264 -0.352,0 -0.64,-0.112 -0.864,-0.336 -0.288,-0.352 -0.664,-0.632 -1.128,-0.84 -0.448,-0.208 -0.96,-0.312 -1.536,-0.312 -1.216,0 -1.824,0.44 -1.824,1.32 0,0.352 0.112,0.64 0.336,0.864 0.224,0.208 0.504,0.376 0.84,0.504 0.352,0.112 0.84,0.256 1.464,0.432 0.864,0.24 1.584,0.488 2.16,0.744 0.576,0.256 1.064,0.648 1.464,1.176 0.4,0.528 0.6,1.224 0.6,2.088 0,0.784 -0.232,1.472 -0.696,2.064 -0.464,0.576 -1.064,1.016 -1.8,1.32 -0.72,0.304 -1.464,0.456 -2.232,0.456 -1.056,0 -2.04,-0.176 -2.952,-0.528 -0.912,-0.352 -1.656,-0.92 -2.232,-1.704 z"
         fill="#000000"
         fill-opacity="0.2"
         id="path873" />
    </g>
  </g>
</svg>
