<?xml version="1.0" encoding="UTF-8" standalone="no"?>
<svg
   xmlns:dc="http://purl.org/dc/elements/1.1/"
   xmlns:cc="http://creativecommons.org/ns#"
   xmlns:rdf="http://www.w3.org/1999/02/22-rdf-syntax-ns#"
   xmlns:svg="http://www.w3.org/2000/svg"
   xmlns="http://www.w3.org/2000/svg"
   xmlns:sodipodi="http://sodipodi.sourceforge.net/DTD/sodipodi-0.dtd"
   xmlns:inkscape="http://www.inkscape.org/namespaces/inkscape"
   width="85.401138mm"
   height="33.785259mm"
   viewBox="0 0 85.401138 33.785259"
   version="1.1"
   id="svg8"
   inkscape:version="1.0.1 (c497b03c, 2020-09-10)"
   sodipodi:docname="SelectCard.svg">
  <defs
     id="defs2" />
  <sodipodi:namedview
     id="base"
     pagecolor="#ffffff"
     bordercolor="#666666"
     borderopacity="1.0"
     inkscape:pageopacity="0.0"
     inkscape:pageshadow="2"
     inkscape:zoom="0.69127292"
     inkscape:cx="202.34044"
     inkscape:cy="234.76293"
     inkscape:document-units="mm"
     inkscape:current-layer="layer1"
     inkscape:document-rotation="0"
     showgrid="false"
     fit-margin-top="0"
     fit-margin-left="0"
     fit-margin-right="0"
     fit-margin-bottom="0"
     inkscape:window-width="1252"
     inkscape:window-height="794"
     inkscape:window-x="0"
     inkscape:window-y="23"
     inkscape:window-maximized="0" />
  <metadata
     id="metadata5">
    <rdf:RDF>
      <cc:Work
         rdf:about="">
        <dc:format>image/svg+xml</dc:format>
        <dc:type
           rdf:resource="http://purl.org/dc/dcmitype/StillImage" />
        <dc:title></dc:title>
      </cc:Work>
    </rdf:RDF>
  </metadata>
  <g
     inkscape:label="Layer 1"
     inkscape:groupmode="layer"
     id="layer1"
     transform="translate(-62.29943,-90.808001)">
    <g
       style="fill:none"
       id="g48"
       transform="matrix(0.26458333,0,0,0.26458333,85.288542,90.586309)">
      <path
         d="M 87.4233,53.0698 H 73.7397 v 4.5418 h 13.6836 z"
         fill="#000000"
         fill-opacity="0.2"
         id="path10" />
      <path
         d="M 87.4233,60.6396 H 73.7397 v 4.5421 h 13.6836 z"
         fill="#000000"
         fill-opacity="0.2"
         id="path12" />
      <path
         d="m 87.4234,68.2095 h -4.5611 v 4.5418 h 4.5611 z"
         fill="#000000"
         fill-opacity="0.2"
         id="path14" />
      <path
         d="m 60.8162,60.6396 h -6.9939 v 4.5421 h 6.9939 z"
         fill="#000000"
         fill-opacity="0.2"
         id="path16" />
      <path
         d="M 39.2264,47.771 H 34.665 v 4.5418 h 4.5614 z"
         fill="#000000"
         fill-opacity="0.2"
         id="path18" />
      <path
         d="m 64.465,19.0054 h -9.1225 c -2.934,0 -5.3215,2.3771 -5.3215,5.299 v 9.0838 c 0,2.9216 2.3872,5.299 5.3215,5.299 h 9.1225 c 2.934,0 5.3215,-2.3771 5.3215,-5.299 v -9.0838 c 0,-2.9216 -2.3872,-5.299 -5.3215,-5.299 z m 0.7604,14.3828 c 0,0.4176 -0.3408,0.7569 -0.7601,0.7569 h -9.1225 c -0.4194,0 -0.7601,-0.3393 -0.7601,-0.7569 v -9.0838 c 0,-0.4176 0.3407,-0.757 0.7601,-0.757 h 9.1225 c 0.4193,0 0.7601,0.3394 0.7601,0.757 z"
         fill="#070707"
         fill-opacity="0.2"
         id="path20" />
      <path
         d="m 30.4082,68.9668 c -3.7725,0 -6.8418,3.0563 -6.8418,6.8128 0,3.7565 3.0693,6.8129 6.8418,6.8129 3.7724,0 6.8418,-3.0564 6.8418,-6.8129 0,-3.7565 -3.0694,-6.8128 -6.8418,-6.8128 z m 0,9.0839 c -1.2578,0 -2.2807,-1.0186 -2.2807,-2.2711 0,-1.2524 1.0229,-2.271 2.2807,-2.271 1.2578,0 2.2807,1.0186 2.2807,2.271 0,1.2522 -1.0229,2.2711 -2.2807,2.2711 z"
         fill="#000000"
         fill-opacity="0.2"
         id="path22" />
      <path
         d="m 119.352,68.9668 c -3.772,0 -6.842,3.0563 -6.842,6.8128 0,3.7565 3.07,6.8129 6.842,6.8129 3.772,0 6.842,-3.0564 6.842,-6.8129 0,-3.7565 -3.07,-6.8128 -6.842,-6.8128 z m 0,9.0839 c -1.258,0 -2.281,-1.0186 -2.281,-2.2711 0,-1.2524 1.023,-2.271 2.281,-2.271 1.258,0 2.281,1.0186 2.281,2.271 0,1.2522 -1.023,2.2711 -2.281,2.2711 z"
         fill="#000000"
         fill-opacity="0.2"
         id="path24" />
      <path
         d="M 30.5807,16.8857 22.7983,43.2289 H 41.5069 V 16.8857 Z m 6.3651,21.8014 h -8.051 l 5.0986,-17.2593 h 2.9524 z"
         fill="#000000"
         fill-opacity="0.2"
         id="path26" />
      <path
         d="M 137.597,0.837891 H 31.1684 c -6.2877,0 -11.4032,5.093539 -11.4032,11.354909 v 2.271 h 3.794 L 15.4867,41.7934 0,55.0557 v 26.0229 h 16.9845 c 2.1239,5.3149 7.3383,9.0839 13.4237,9.0839 6.0854,0 11.2999,-3.769 13.4237,-9.0839 h 16.9845 v -4.5418 h -4.1196 l -2.0732,-3.7849 h 9.9941 v 8.327 h 6.0816 v 8.3269 h 4.5611 v -8.3269 h 10.6428 v 8.3269 h 4.561 v -8.3269 h 6.0817 v -8.327 h 8.6871 c -0.211,0.9769 -0.325,1.9894 -0.325,3.028 0,0.2541 0.007,0.5062 0.02,0.7569 h -4.581 v 4.5418 h 5.582 c 2.123,5.3149 7.338,9.0839 13.423,9.0839 6.086,0 11.3,-3.769 13.424,-9.0839 H 149 V 14.4635 12.1925 C 149,5.93143 143.885,0.837891 137.597,0.837891 Z M 31.1684,5.37968 H 137.597 c 2.973,0 5.509,1.89867 6.451,4.54179 H 89.1352 L 79.0233,26.7032 v 3.9599 c 0,4.2334 3.31,7.7091 7.4881,8.0015 v 6.0782 H 75.8686 V 14.4633 H 84.231 V 9.92147 H 24.901 24.7174 C 25.6588,7.27835 28.195,5.37968 31.1684,5.37968 Z M 129.127,25.0613 125.296,14.4635 h 3.37 l 6.386,10.5978 z m 7.672,4.542 v 1.0598 c 0,1.9201 -1.569,3.482 -3.497,3.482 -1.929,0 -3.497,-1.5622 -3.497,-3.482 v -1.0598 z m -18.549,0 h 6.994 v 1.0598 c 0,1.9201 -1.569,3.482 -3.497,3.482 -1.928,0 -3.497,-1.5622 -3.497,-3.482 z m -0.257,-4.542 -1.278,-10.5978 h 3.733 l 3.831,10.5978 z m -4.305,4.542 v 1.0598 c 0,1.9201 -1.568,3.482 -3.496,3.482 -1.928,0 -3.497,-1.5622 -3.497,-3.482 v -1.0598 z m -6.704,-4.542 1.278,-10.5978 h 3.859 l 1.278,10.5978 z m -10.8802,0 3.8315,-10.5978 h 3.7327 l -1.277,10.5978 z m 6.0292,4.542 v 1.0598 c 0,1.9201 -1.568,3.482 -3.4965,3.482 -1.9282,0 -3.4968,-1.5622 -3.4968,-3.482 v -1.0598 z m -16.8014,-4.542 6.3858,-10.5978 h 3.3702 l -3.8315,10.5978 z m 5.2467,4.542 v 1.0598 c 0,1.9201 -1.5688,3.482 -3.4968,3.482 -1.9283,0 -3.4969,-1.5622 -3.4969,-3.482 V 29.6033 Z M 15.9843,76.5365 H 4.56109 V 72.7516 H 16.289 c -0.211,0.9769 -0.3248,1.9894 -0.3248,3.028 0,0.2539 0.007,0.5063 0.0201,0.7569 z m 14.4239,9.0839 c -5.4495,0 -9.8826,-4.4146 -9.8826,-9.8408 0,-5.4265 4.4334,-9.8408 9.8826,-9.8408 5.4493,0 9.8826,4.4146 9.8826,9.8408 0,5.4262 -4.4333,9.8408 -9.8826,9.8408 z M 42.6821,68.2096 c -2.5508,-4.0857 -7.0976,-6.8129 -12.2739,-6.8129 -5.1763,0 -9.7234,2.7272 -12.2739,6.8129 H 4.56138 V 65.9385 H 9.88289 V 61.3964 H 4.56109 V 57.1398 L 19.4823,44.3618 28.3132,14.4633 h 15.6264 v 48.2691 l 3.0001,5.4769 z m 2.1497,8.3269 c 0.0131,-0.2506 0.0201,-0.503 0.0201,-0.7569 0,-1.0386 -0.1138,-2.0511 -0.3248,-3.028 h 4.9007 l 2.0732,3.7849 z M 64.6174,53.0698 H 53.8225 v 4.5418 H 64.6174 V 68.2093 H 52.1354 L 48.501,61.5744 V 14.4635 H 71.307 V 44.7431 H 64.6171 Z M 91.9848,76.5365 H 69.1788 V 49.2849 h 22.806 z m 27.3672,9.0839 c -5.45,0 -9.883,-4.4146 -9.883,-9.8408 0,-5.4265 4.434,-9.8408 9.883,-9.8408 5.449,0 9.883,4.4146 9.883,9.8408 0,5.4262 -4.434,9.8408 -9.883,9.8408 z m 25.087,-9.0839 h -10.663 c 0.013,-0.2506 0.02,-0.503 0.02,-0.7569 0,-1.0386 -0.114,-2.0511 -0.325,-3.028 h 10.968 z m 0,-15.1398 h -5.322 v 4.5421 h 5.322 v 2.2711 h -12.813 c -2.551,-4.0857 -7.098,-6.8129 -12.274,-6.8129 -5.176,0 -9.723,2.7272 -12.274,6.8129 H 96.5462 v -8.327 H 139.079 V 55.3411 H 114.36 c 0.172,-0.4822 0.291,-0.9893 0.35,-1.5138 h 2.323 v -4.5418 h -2.28 v -3.028 h -13.684 v 6.8129 c 0,0.796 0.139,1.5602 0.392,2.271 H 96.5459 V 44.7437 h -5.4734 v -7.1142 c 0.6591,-0.3762 1.2604,-0.8418 1.7865,-1.3811 1.4653,1.5025 3.5132,2.4388 5.7775,2.4388 2.2645,0 4.3125,-0.9363 5.7775,-2.4388 1.465,1.5025 3.513,2.4388 5.778,2.4388 2.264,0 4.312,-0.9363 5.777,-2.4388 1.465,1.5025 3.513,2.4388 5.778,2.4388 2.264,0 4.312,-0.9363 5.777,-2.4388 0.526,0.5393 1.127,1.0049 1.787,1.3811 V 51.556 h 4.561 V 38.6649 c 4.178,-0.2924 7.488,-3.7684 7.488,-8.0015 v -3.9596 l -7.375,-12.24 h 10.454 z M 105.63,53.0698 v -2.2711 h 4.561 v 2.2711 c 0,1.2524 -1.023,2.271 -2.28,2.271 -1.258,0 -2.281,-1.0186 -2.281,-2.271 z"
         fill="#000000"
         fill-opacity="0.2"
         id="path28" />
    </g>
    <g
       style="fill:none"
       id="g61"
       transform="matrix(0.26458333,0,0,0.26458333,62.255236,119.76726)">
      <path
         d="m 6.40703,18.24 c -1.152,0 -2.176,-0.144 -3.072,-0.432 -0.896,-0.288 -1.736,-0.776 -2.519999,-1.464 -0.432,-0.384 -0.648,-0.808 -0.648,-1.272 0,-0.368 0.136,-0.688 0.408,-0.96 0.272,-0.288 0.599999,-0.432 0.983999,-0.432 0.304,0 0.576,0.096 0.816,0.288 0.64,0.528 1.264,0.912 1.872,1.152 0.608,0.24 1.328,0.36 2.16,0.36 0.896,0 1.664,-0.2 2.304,-0.6 0.656,-0.4 0.984,-0.896 0.984,-1.488 0,-0.72 -0.32,-1.28 -0.96,-1.68 -0.64,-0.416 -1.656,-0.728 -3.048,-0.936 -3.504,-0.512 -5.255999,-2.144 -5.255999,-4.896 0,-1.008 0.264,-1.88 0.791999,-2.616 0.528,-0.752 1.248,-1.32 2.16,-1.704 0.912,-0.4 1.928,-0.600001 3.048,-0.600001 1.008,0 1.952,0.152001 2.832,0.456001 0.89597,0.304 1.63997,0.704 2.23197,1.2 0.464,0.368 0.696,0.792 0.696,1.272 0,0.368 -0.136,0.696 -0.408,0.984 -0.272,0.272 -0.592,0.408 -0.96,0.408 -0.24,0 -0.456,-0.072 -0.648,-0.216 C 9.75903,4.728 9.17503,4.424 8.42303,4.152 c -0.736,-0.288 -1.4,-0.432 -1.992,-0.432 -1.008,0 -1.792,0.192 -2.352,0.576 -0.544,0.368 -0.816,0.856 -0.816,1.464 0,0.688 0.28,1.208 0.84,1.56 0.576,0.352 1.472,0.64 2.688,0.864 1.376,0.24 2.472,0.552 3.28797,0.936 0.832,0.368 1.456,0.88 1.872,1.536 0.416,0.64 0.624,1.496 0.624,2.568 0,1.008 -0.288,1.896 -0.864,2.664 -0.56,0.752 -1.312,1.336 -2.25597,1.752 -0.944,0.4 -1.96,0.6 -3.048,0.6 z M 26.6073,11.28 c -0.016,0.384 -0.168,0.696 -0.456,0.936 -0.288,0.24 -0.624,0.36 -1.008,0.36 h -7.92 c 0.192,0.944 0.632,1.688 1.32,2.232 0.688,0.528 1.464,0.792 2.328,0.792 0.656,0 1.168,-0.056 1.536,-0.168 0.368,-0.128 0.656,-0.256 0.864,-0.384 0.224,-0.144 0.376,-0.24 0.456,-0.288 0.288,-0.144 0.56,-0.216 0.816,-0.216 0.336,0 0.624,0.12 0.864,0.36 0.24,0.24 0.36,0.52 0.36,0.84 0,0.432 -0.224,0.824 -0.672,1.176 -0.448,0.368 -1.048,0.68 -1.8,0.936 -0.752,0.256 -1.512,0.384 -2.28,0.384 -1.344,0 -2.52,-0.28 -3.528,-0.84 -0.992,-0.56 -1.76,-1.328 -2.304,-2.304 -0.544,-0.992 -0.816,-2.104 -0.816,-3.336 0,-1.376 0.288,-2.584 0.864,-3.624 0.576,-1.04 1.336,-1.832 2.28,-2.376 0.944,-0.56 1.952,-0.84 3.024,-0.84 1.056,0 2.048,0.288 2.976,0.864 0.944,0.576 1.696,1.352 2.256,2.328 0.56,0.976 0.84,2.032 0.84,3.168 z m -6.072,-3.72 c -1.856,0 -2.952,0.872 -3.288,2.616 h 6.288 V 10.008 C 23.4713,9.336 23.1433,8.76 22.5513,8.28 21.9593,7.8 21.2873,7.56 20.5353,7.56 Z m 11.5939,8.976 c 0,0.416 -0.144,0.768 -0.432,1.056 -0.272,0.272 -0.616,0.408 -1.032,0.408 -0.4,0 -0.736,-0.136 -1.008,-0.408 -0.272,-0.288 -0.408,-0.64 -0.408,-1.056 V 1.704 c 0,-0.416 0.136,-0.760001 0.408,-1.032001 0.288,-0.288 0.64,-0.431999 1.056,-0.431999 0.4,0 0.736,0.143999 1.008,0.431999 0.272,0.272 0.408,0.616001 0.408,1.032001 z M 46.7636,11.28 c -0.016,0.384 -0.168,0.696 -0.456,0.936 -0.288,0.24 -0.624,0.36 -1.008,0.36 h -7.92 c 0.192,0.944 0.632,1.688 1.32,2.232 0.688,0.528 1.464,0.792 2.328,0.792 0.656,0 1.168,-0.056 1.536,-0.168 0.368,-0.128 0.656,-0.256 0.864,-0.384 0.224,-0.144 0.376,-0.24 0.456,-0.288 0.288,-0.144 0.56,-0.216 0.816,-0.216 0.336,0 0.624,0.12 0.864,0.36 0.24,0.24 0.36,0.52 0.36,0.84 0,0.432 -0.224,0.824 -0.672,1.176 -0.448,0.368 -1.048,0.68 -1.8,0.936 -0.752,0.256 -1.512,0.384 -2.28,0.384 -1.344,0 -2.52,-0.28 -3.528,-0.84 -0.992,-0.56 -1.76,-1.328 -2.304,-2.304 -0.544,-0.992 -0.816,-2.104 -0.816,-3.336 0,-1.376 0.288,-2.584 0.864,-3.624 0.576,-1.04 1.336,-1.832 2.28,-2.376 0.944,-0.56 1.952,-0.84 3.024,-0.84 1.056,0 2.048,0.288 2.976,0.864 0.944,0.576 1.696,1.352 2.256,2.328 0.56,0.976 0.84,2.032 0.84,3.168 z m -6.072,-3.72 c -1.856,0 -2.952,0.872 -3.288,2.616 h 6.288 V 10.008 C 43.6276,9.336 43.2996,8.76 42.7076,8.28 42.1156,7.8 41.4436,7.56 40.6916,7.56 Z M 54.7575,4.92 c 1.36,0 2.456,0.216 3.288,0.648 0.832,0.416 1.248,0.976 1.248,1.68 0,0.352 -0.104,0.664 -0.312,0.936 -0.208,0.256 -0.48,0.384 -0.816,0.384 -0.256,0 -0.464,-0.032 -0.624,-0.096 -0.16,-0.08 -0.32,-0.176 -0.48,-0.288 -0.144,-0.128 -0.288,-0.232 -0.432,-0.312 -0.16,-0.08 -0.4,-0.152 -0.72,-0.216 -0.304,-0.064 -0.552,-0.096 -0.744,-0.096 -1.2,0 -2.144,0.376 -2.832,1.128 -0.672,0.736 -1.008,1.704 -1.008,2.904 0,1.152 0.344,2.112 1.032,2.88 0.688,0.752 1.568,1.128 2.64,1.128 0.784,0 1.368,-0.096 1.752,-0.288 0.096,-0.048 0.224,-0.128 0.384,-0.24 0.176,-0.128 0.336,-0.224 0.48,-0.288 0.144,-0.064 0.32,-0.096 0.528,-0.096 0.4,0 0.712,0.128 0.936,0.384 0.24,0.256 0.36,0.584 0.36,0.984 0,0.384 -0.224,0.744 -0.672,1.08 -0.448,0.336 -1.04,0.608 -1.776,0.816 -0.736,0.192 -1.52,0.288 -2.352,0.288 -1.232,0 -2.32,-0.288 -3.264,-0.864 -0.928,-0.576 -1.648,-1.368 -2.16,-2.376 -0.512,-1.024 -0.768,-2.16 -0.768,-3.408 0,-1.296 0.264,-2.448 0.792,-3.456 0.544,-1.008 1.296,-1.792 2.256,-2.352 0.96,-0.576 2.048,-0.864 3.264,-0.864 z M 67.709,15.288 c 0.224,0 0.424,0.112 0.6,0.336 0.192,0.208 0.288,0.488 0.288,0.84 0,0.432 -0.24,0.8 -0.72,1.104 C 67.413,17.856 66.885,18 66.293,18 65.301,18 64.461,17.792 63.773,17.376 63.101,16.944 62.765,16.04 62.765,14.664 V 8.04 H 61.661 C 61.277,8.04 60.957,7.912 60.701,7.656 60.445,7.4 60.317,7.08 60.317,6.696 60.317,6.328 60.445,6.024 60.701,5.784 60.957,5.528 61.277,5.4 61.661,5.4 h 1.104 V 3.864 c 0,-0.416 0.136,-0.76 0.408,-1.032 0.288,-0.288 0.64,-0.432 1.056,-0.432 0.4,0 0.736,0.144 1.008,0.432 0.272,0.272 0.408,0.616 0.408,1.032 V 5.4 h 1.704 c 0.384,0 0.704,0.128 0.96,0.384 0.256,0.256 0.384,0.576 0.384,0.96 0,0.368 -0.128,0.68 -0.384,0.936 -0.256,0.24 -0.576,0.36 -0.96,0.36 h -1.704 v 6.504 c 0,0.336 0.088,0.584 0.264,0.744 0.176,0.144 0.416,0.216 0.72,0.216 0.128,0 0.304,-0.032 0.528,-0.096 0.192,-0.08 0.376,-0.12 0.552,-0.12 z M 88.4559,4.92 c 0.416,0 0.76,0.136 1.032,0.408 0.272,0.272 0.408,0.624 0.408,1.056 v 10.152 c 0,0.416 -0.136,0.768 -0.408,1.056 -0.272,0.272 -0.616,0.408 -1.032,0.408 -0.416,0 -0.76,-0.136 -1.032,-0.408 -0.256,-0.272 -0.392,-0.616 -0.408,-1.032 -0.4,0.464 -0.944,0.864 -1.632,1.2 -0.672,0.32 -1.384,0.48 -2.136,0.48 -1.104,0 -2.104,-0.28 -3,-0.84 -0.896,-0.576 -1.608,-1.368 -2.136,-2.376 -0.512,-1.008 -0.768,-2.152 -0.768,-3.432 0,-1.28 0.256,-2.424 0.768,-3.432 0.512,-1.024 1.208,-1.816 2.088,-2.376 0.896,-0.576 1.88,-0.864 2.952,-0.864 0.768,0 1.488,0.144 2.16,0.432 0.672,0.272 1.24,0.624 1.704,1.056 V 6.384 c 0,-0.416 0.136,-0.76 0.408,-1.032 0.272,-0.288 0.616,-0.432 1.032,-0.432 z m -4.848,10.68 c 1.04,0 1.888,-0.376 2.544,-1.128 0.656,-0.768 0.984,-1.728 0.984,-2.88 0,-1.152 -0.328,-2.112 -0.984,-2.88 -0.656,-0.768 -1.504,-1.152 -2.544,-1.152 -1.024,0 -1.864,0.384 -2.52,1.152 -0.656,0.768 -0.984,1.728 -0.984,2.88 0,1.152 0.32,2.112 0.96,2.88 0.656,0.752 1.504,1.128 2.544,1.128 z M 105.336,4.92 c 1.36,0 2.456,0.216 3.288,0.648 0.832,0.416 1.248,0.976 1.248,1.68 0,0.352 -0.104,0.664 -0.312,0.936 -0.208,0.256 -0.48,0.384 -0.816,0.384 -0.256,0 -0.464,-0.032 -0.624,-0.096 -0.16,-0.08 -0.32,-0.176 -0.48,-0.288 -0.144,-0.128 -0.288,-0.232 -0.432,-0.312 -0.16,-0.08 -0.4,-0.152 -0.72,-0.216 -0.304,-0.064 -0.552,-0.096 -0.744,-0.096 -1.2,0 -2.144,0.376 -2.832,1.128 -0.672,0.736 -1.008,1.704 -1.008,2.904 0,1.152 0.344,2.112 1.032,2.88 0.688,0.752 1.568,1.128 2.64,1.128 0.784,0 1.368,-0.096 1.752,-0.288 0.096,-0.048 0.224,-0.128 0.384,-0.24 0.176,-0.128 0.336,-0.224 0.48,-0.288 0.144,-0.064 0.32,-0.096 0.528,-0.096 0.4,0 0.712,0.128 0.936,0.384 0.24,0.256 0.36,0.584 0.36,0.984 0,0.384 -0.224,0.744 -0.672,1.08 -0.448,0.336 -1.04,0.608 -1.776,0.816 -0.736,0.192 -1.52,0.288 -2.352,0.288 -1.232,0 -2.32,-0.288 -3.264,-0.864 -0.928,-0.576 -1.648,-1.368 -2.1604,-2.376 -0.512,-1.024 -0.768,-2.16 -0.768,-3.408 0,-1.296 0.264,-2.448 0.792,-3.456 0.5444,-1.008 1.2964,-1.792 2.2564,-2.352 0.96,-0.576 2.048,-0.864 3.264,-0.864 z m 17.151,0 c 0.416,0 0.76,0.136 1.032,0.408 0.272,0.272 0.408,0.624 0.408,1.056 v 10.152 c 0,0.416 -0.136,0.768 -0.408,1.056 -0.272,0.272 -0.616,0.408 -1.032,0.408 -0.416,0 -0.76,-0.136 -1.032,-0.408 -0.256,-0.272 -0.392,-0.616 -0.408,-1.032 -0.4,0.464 -0.944,0.864 -1.632,1.2 -0.672,0.32 -1.384,0.48 -2.136,0.48 -1.104,0 -2.104,-0.28 -3,-0.84 -0.896,-0.576 -1.608,-1.368 -2.136,-2.376 -0.512,-1.008 -0.768,-2.152 -0.768,-3.432 0,-1.28 0.256,-2.424 0.768,-3.432 0.512,-1.024 1.208,-1.816 2.088,-2.376 0.896,-0.576 1.88,-0.864 2.952,-0.864 0.768,0 1.488,0.144 2.16,0.432 0.672,0.272 1.24,0.624 1.704,1.056 V 6.384 c 0,-0.416 0.136,-0.76 0.408,-1.032 0.272,-0.288 0.616,-0.432 1.032,-0.432 z m -4.848,10.68 c 1.04,0 1.888,-0.376 2.544,-1.128 0.656,-0.768 0.984,-1.728 0.984,-2.88 0,-1.152 -0.328,-2.112 -0.984,-2.88 -0.656,-0.768 -1.504,-1.152 -2.544,-1.152 -1.024,0 -1.864,0.384 -2.52,1.152 -0.656,0.768 -0.984,1.728 -0.984,2.88 0,1.152 0.32,2.112 0.96,2.88 0.656,0.752 1.504,1.128 2.544,1.128 z M 133.72,4.92 c 0.48,0 0.88,0.136 1.2,0.408 0.336,0.272 0.504,0.592 0.504,0.96 0,0.496 -0.128,0.872 -0.384,1.128 -0.256,0.24 -0.56,0.36 -0.912,0.36 -0.24,0 -0.512,-0.056 -0.816,-0.168 -0.048,-0.016 -0.16,-0.048 -0.336,-0.096 -0.16,-0.048 -0.336,-0.072 -0.528,-0.072 -0.416,0 -0.816,0.128 -1.2,0.384 -0.384,0.256 -0.704,0.648 -0.96,1.176 -0.24,0.512 -0.36,1.128 -0.36,1.848 v 5.688 c 0,0.416 -0.136,0.768 -0.408,1.056 -0.272,0.272 -0.616,0.408 -1.032,0.408 -0.416,0 -0.76,-0.136 -1.032,-0.408 -0.272,-0.288 -0.408,-0.64 -0.408,-1.056 V 6.624 c 0,-0.416 0.136,-0.76 0.408,-1.032 0.272,-0.288 0.616,-0.432 1.032,-0.432 0.416,0 0.76,0.144 1.032,0.432 0.272,0.272 0.408,0.616 0.408,1.032 v 0.312 c 0.368,-0.656 0.896,-1.152 1.584,-1.488 0.688,-0.352 1.424,-0.528 2.208,-0.528 z m 13.587,-4.68 c 0.416,0 0.76,0.135999 1.032,0.407999 0.272,0.272 0.408,0.624001 0.408,1.056001 v 14.832 c 0,0.416 -0.136,0.768 -0.408,1.056 -0.272,0.272 -0.616,0.408 -1.032,0.408 -0.416,0 -0.76,-0.136 -1.032,-0.408 -0.256,-0.272 -0.392,-0.616 -0.408,-1.032 -0.4,0.464 -0.944,0.864 -1.632,1.2 -0.672,0.32 -1.384,0.48 -2.136,0.48 -1.104,0 -2.104,-0.28 -3,-0.84 -0.896,-0.576 -1.608,-1.368 -2.136,-2.376 -0.512,-1.008 -0.768,-2.152 -0.768,-3.432 0,-1.28 0.256,-2.424 0.768,-3.432 0.512,-1.024 1.208,-1.816 2.088,-2.376 0.896,-0.576 1.88,-0.864 2.952,-0.864 0.768,0 1.488,0.144 2.16,0.432 0.672,0.272 1.24,0.624 1.704,1.056 V 1.704 c 0,-0.416 0.136,-0.760001 0.408,-1.032001 0.272,-0.288 0.616,-0.431999 1.032,-0.431999 z m -4.848,15.36 c 1.04,0 1.888,-0.376 2.544,-1.128 0.656,-0.768 0.984,-1.728 0.984,-2.88 0,-1.152 -0.328,-2.112 -0.984,-2.88 -0.656,-0.768 -1.504,-1.152 -2.544,-1.152 -1.024,0 -1.864,0.384 -2.52,1.152 -0.656,0.768 -0.984,1.728 -0.984,2.88 0,1.152 0.32,2.112 0.96,2.88 0.656,0.752 1.504,1.128 2.544,1.128 z m 22.328,-0.312 c 0.224,0 0.424,0.112 0.6,0.336 0.192,0.208 0.288,0.488 0.288,0.84 0,0.432 -0.24,0.8 -0.72,1.104 -0.464,0.288 -0.992,0.432 -1.584,0.432 -0.992,0 -1.832,-0.208 -2.52,-0.624 -0.672,-0.432 -1.008,-1.336 -1.008,-2.712 V 8.04 h -1.104 c -0.384,0 -0.704,-0.128 -0.96,-0.384 -0.256,-0.256 -0.384,-0.576 -0.384,-0.96 0,-0.368 0.128,-0.672 0.384,-0.912 0.256,-0.256 0.576,-0.384 0.96,-0.384 h 1.104 V 3.864 c 0,-0.416 0.136,-0.76 0.408,-1.032 0.288,-0.288 0.64,-0.432 1.056,-0.432 0.4,0 0.736,0.144 1.008,0.432 0.272,0.272 0.408,0.616 0.408,1.032 V 5.4 h 1.704 c 0.384,0 0.704,0.128 0.96,0.384 0.256,0.256 0.384,0.576 0.384,0.96 0,0.368 -0.128,0.68 -0.384,0.936 -0.256,0.24 -0.576,0.36 -0.96,0.36 h -1.704 v 6.504 c 0,0.336 0.088,0.584 0.264,0.744 0.176,0.144 0.416,0.216 0.72,0.216 0.128,0 0.304,-0.032 0.528,-0.096 0.192,-0.08 0.376,-0.12 0.552,-0.12 z m 15.847,-3.696 c 0,1.28 -0.288,2.432 -0.864,3.456 -0.576,1.008 -1.368,1.792 -2.376,2.352 -0.992,0.56 -2.088,0.84 -3.288,0.84 -1.216,0 -2.32,-0.28 -3.312,-0.84 -0.992,-0.56 -1.776,-1.344 -2.352,-2.352 -0.576,-1.024 -0.864,-2.176 -0.864,-3.456 0,-1.28 0.288,-2.424 0.864,-3.432 0.576,-1.024 1.36,-1.816 2.352,-2.376 0.992,-0.576 2.096,-0.864 3.312,-0.864 1.2,0 2.296,0.288 3.288,0.864 1.008,0.56 1.8,1.352 2.376,2.376 0.576,1.008 0.864,2.152 0.864,3.432 z m -2.88,0 c 0,-0.784 -0.168,-1.48 -0.504,-2.088 -0.32,-0.624 -0.76,-1.104 -1.32,-1.44 -0.544,-0.336 -1.152,-0.504 -1.824,-0.504 -0.672,0 -1.288,0.168 -1.848,0.504 -0.544,0.336 -0.984,0.816 -1.32,1.44 -0.32,0.608 -0.48,1.304 -0.48,2.088 0,0.784 0.16,1.48 0.48,2.088 0.336,0.608 0.776,1.08 1.32,1.416 0.56,0.336 1.176,0.504 1.848,0.504 0.672,0 1.28,-0.168 1.824,-0.504 0.56,-0.336 1,-0.808 1.32,-1.416 0.336,-0.608 0.504,-1.304 0.504,-2.088 z m 21.877,-6.408 c 0.384,0 0.704,0.128 0.96,0.384 0.256,0.24 0.384,0.544 0.384,0.912 0,0.192 -0.064,0.432 -0.192,0.72 l -4.488,9.888 c -0.112,0.272 -0.28,0.488 -0.504,0.648 -0.208,0.16 -0.448,0.248 -0.72,0.264 l -0.216,0.024 c -0.272,0 -0.528,-0.08 -0.768,-0.24 -0.224,-0.176 -0.4,-0.408 -0.528,-0.696 L 189.095,7.2 c -0.112,-0.256 -0.168,-0.512 -0.168,-0.768 0,-0.32 0.136,-0.608 0.408,-0.864 0.272,-0.272 0.608,-0.408 1.008,-0.408 0.304,0 0.584,0.08 0.84,0.24 0.256,0.16 0.448,0.384 0.576,0.672 l 3.312,7.584 3.288,-7.56 c 0.128,-0.304 0.304,-0.536 0.528,-0.696 0.224,-0.16 0.472,-0.232 0.744,-0.216 z m 6.325,11.352 c 0,0.416 -0.136,0.768 -0.408,1.056 -0.272,0.272 -0.616,0.408 -1.032,0.408 -0.416,0 -0.76,-0.136 -1.032,-0.408 -0.272,-0.288 -0.408,-0.64 -0.408,-1.056 V 6.624 c 0,-0.416 0.136,-0.76 0.408,-1.032 0.272,-0.288 0.616,-0.432 1.032,-0.432 0.416,0 0.76,0.144 1.032,0.432 0.272,0.272 0.408,0.616 0.408,1.032 z M 204.492,3.6 C 203.948,3.6 203.564,3.512 203.34,3.336 203.116,3.16 203.004,2.848 203.004,2.4 V 1.944 c 0,-0.448 0.12,-0.76 0.36,-0.936 0.24,-0.176001 0.624,-0.264001 1.152,-0.264001 0.56,0 0.952,0.088 1.176,0.264001 0.224,0.176 0.336,0.488 0.336,0.936 V 2.4 c 0,0.464 -0.12,0.784 -0.36,0.96 -0.224,0.16 -0.616,0.24 -1.176,0.24 z m 15.943,7.68 c -0.016,0.384 -0.168,0.696 -0.456,0.936 -0.288,0.24 -0.624,0.36 -1.008,0.36 h -7.92 c 0.192,0.944 0.632,1.688 1.32,2.232 0.688,0.528 1.464,0.792 2.328,0.792 0.656,0 1.168,-0.056 1.536,-0.168 0.368,-0.128 0.656,-0.256 0.864,-0.384 0.224,-0.144 0.376,-0.24 0.456,-0.288 0.288,-0.144 0.56,-0.216 0.816,-0.216 0.336,0 0.624,0.12 0.864,0.36 0.24,0.24 0.36,0.52 0.36,0.84 0,0.432 -0.224,0.824 -0.672,1.176 -0.448,0.368 -1.048,0.68 -1.8,0.936 -0.752,0.256 -1.512,0.384 -2.28,0.384 -1.344,0 -2.52,-0.28 -3.528,-0.84 -0.992,-0.56 -1.76,-1.328 -2.304,-2.304 -0.544,-0.992 -0.816,-2.104 -0.816,-3.336 0,-1.376 0.288,-2.584 0.864,-3.624 0.576,-1.04 1.336,-1.832 2.28,-2.376 0.944,-0.56 1.952,-0.84 3.024,-0.84 1.056,0 2.048,0.288 2.976,0.864 0.944,0.576 1.696,1.352 2.256,2.328 0.56,0.976 0.84,2.032 0.84,3.168 z m -6.072,-3.72 c -1.856,0 -2.952,0.872 -3.288,2.616 h 6.288 V 10.008 C 217.299,9.336 216.971,8.76 216.379,8.28 215.787,7.8 215.115,7.56 214.363,7.56 Z m 23.258,-2.4 c 0.384,0 0.704,0.144 0.96,0.432 0.272,0.272 0.408,0.624 0.408,1.056 0,0.144 -0.032,0.328 -0.096,0.552 l -3.672,9.888 c -0.096,0.288 -0.272,0.52 -0.528,0.696 -0.24,0.16 -0.504,0.24 -0.792,0.24 L 233.709,18 c -0.544,-0.032 -0.952,-0.336 -1.224,-0.912 l -2.04,-5.904 -1.944,5.904 c -0.272,0.576 -0.68,0.88 -1.224,0.912 l -0.192,0.024 c -0.288,0 -0.56,-0.08 -0.816,-0.24 -0.24,-0.176 -0.408,-0.408 -0.504,-0.696 L 222.093,7.2 c -0.064,-0.176 -0.096,-0.36 -0.096,-0.552 0,-0.4 0.128,-0.744 0.384,-1.032 0.272,-0.304 0.624,-0.456 1.056,-0.456 0.32,0 0.592,0.08 0.816,0.24 0.24,0.144 0.408,0.368 0.504,0.672 l 2.592,7.032 1.896,-5.136 c 0.256,-0.592 0.696,-0.888 1.32,-0.888 0.336,0 0.592,0.072 0.768,0.216 0.192,0.144 0.352,0.368 0.48,0.672 l 1.848,5.016 2.568,-6.912 c 0.096,-0.304 0.264,-0.528 0.504,-0.672 0.24,-0.16 0.536,-0.24 0.888,-0.24 z m 20.757,-4.92 c 0.416,0 0.76,0.135999 1.032,0.407999 0.272,0.272 0.408,0.624001 0.408,1.056001 v 14.832 c 0,0.416 -0.136,0.768 -0.408,1.056 -0.272,0.272 -0.616,0.408 -1.032,0.408 -0.416,0 -0.76,-0.136 -1.032,-0.408 -0.256,-0.272 -0.392,-0.616 -0.408,-1.032 -0.4,0.464 -0.944,0.864 -1.632,1.2 -0.672,0.32 -1.384,0.48 -2.136,0.48 -1.104,0 -2.104,-0.28 -3,-0.84 -0.896,-0.576 -1.608,-1.368 -2.136,-2.376 -0.512,-1.008 -0.768,-2.152 -0.768,-3.432 0,-1.28 0.256,-2.424 0.768,-3.432 0.512,-1.024 1.208,-1.816 2.088,-2.376 0.896,-0.576 1.88,-0.864 2.952,-0.864 0.768,0 1.488,0.144 2.16,0.432 0.672,0.272 1.24,0.624 1.704,1.056 V 1.704 c 0,-0.416 0.136,-0.760001 0.408,-1.032001 C 257.618,0.383999 257.962,0.24 258.378,0.24 Z M 253.53,15.6 c 1.04,0 1.888,-0.376 2.544,-1.128 0.656,-0.768 0.984,-1.728 0.984,-2.88 0,-1.152 -0.328,-2.112 -0.984,-2.88 -0.656,-0.768 -1.504,-1.152 -2.544,-1.152 -1.024,0 -1.864,0.384 -2.52,1.152 -0.656,0.768 -0.984,1.728 -0.984,2.88 0,1.152 0.32,2.112 0.96,2.88 0.656,0.752 1.504,1.128 2.544,1.128 z m 20.929,-4.32 c -0.016,0.384 -0.168,0.696 -0.456,0.936 -0.288,0.24 -0.624,0.36 -1.008,0.36 h -7.92 c 0.192,0.944 0.632,1.688 1.32,2.232 0.688,0.528 1.464,0.792 2.328,0.792 0.656,0 1.168,-0.056 1.536,-0.168 0.368,-0.128 0.656,-0.256 0.864,-0.384 0.224,-0.144 0.376,-0.24 0.456,-0.288 0.288,-0.144 0.56,-0.216 0.816,-0.216 0.336,0 0.624,0.12 0.864,0.36 0.24,0.24 0.36,0.52 0.36,0.84 0,0.432 -0.224,0.824 -0.672,1.176 -0.448,0.368 -1.048,0.68 -1.8,0.936 -0.752,0.256 -1.512,0.384 -2.28,0.384 -1.344,0 -2.52,-0.28 -3.528,-0.84 -0.992,-0.56 -1.76,-1.328 -2.304,-2.304 -0.544,-0.992 -0.816,-2.104 -0.816,-3.336 0,-1.376 0.288,-2.584 0.864,-3.624 0.576,-1.04 1.336,-1.832 2.28,-2.376 0.944,-0.56 1.952,-0.84 3.024,-0.84 1.056,0 2.048,0.288 2.976,0.864 0.944,0.576 1.696,1.352 2.256,2.328 0.56,0.976 0.84,2.032 0.84,3.168 z m -6.072,-3.72 c -1.856,0 -2.952,0.872 -3.288,2.616 h 6.288 V 10.008 C 271.323,9.336 270.995,8.76 270.403,8.28 269.811,7.8 269.139,7.56 268.387,7.56 Z m 14.666,7.728 c 0.224,0 0.424,0.112 0.6,0.336 0.192,0.208 0.288,0.488 0.288,0.84 0,0.432 -0.24,0.8 -0.72,1.104 -0.464,0.288 -0.992,0.432 -1.584,0.432 -0.992,0 -1.832,-0.208 -2.52,-0.624 -0.672,-0.432 -1.008,-1.336 -1.008,-2.712 V 8.04 h -1.104 c -0.384,0 -0.704,-0.128 -0.96,-0.384 -0.256,-0.256 -0.384,-0.576 -0.384,-0.96 0,-0.368 0.128,-0.672 0.384,-0.912 0.256,-0.256 0.576,-0.384 0.96,-0.384 h 1.104 V 3.864 c 0,-0.416 0.136,-0.76 0.408,-1.032 0.288,-0.288 0.64,-0.432 1.056,-0.432 0.4,0 0.736,0.144 1.008,0.432 0.272,0.272 0.408,0.616 0.408,1.032 V 5.4 h 1.704 c 0.384,0 0.704,0.128 0.96,0.384 0.256,0.256 0.384,0.576 0.384,0.96 0,0.368 -0.128,0.68 -0.384,0.936 -0.256,0.24 -0.576,0.36 -0.96,0.36 h -1.704 v 6.504 c 0,0.336 0.088,0.584 0.264,0.744 0.176,0.144 0.416,0.216 0.72,0.216 0.128,0 0.304,-0.032 0.528,-0.096 0.192,-0.08 0.376,-0.12 0.552,-0.12 z M 297.073,4.92 c 0.416,0 0.76,0.136 1.032,0.408 0.272,0.272 0.408,0.624 0.408,1.056 v 10.152 c 0,0.416 -0.136,0.768 -0.408,1.056 -0.272,0.272 -0.616,0.408 -1.032,0.408 -0.416,0 -0.76,-0.136 -1.032,-0.408 -0.256,-0.272 -0.392,-0.616 -0.408,-1.032 -0.4,0.464 -0.944,0.864 -1.632,1.2 -0.672,0.32 -1.384,0.48 -2.136,0.48 -1.104,0 -2.104,-0.28 -3,-0.84 -0.896,-0.576 -1.608,-1.368 -2.136,-2.376 -0.512,-1.008 -0.768,-2.152 -0.768,-3.432 0,-1.28 0.256,-2.424 0.768,-3.432 0.512,-1.024 1.208,-1.816 2.088,-2.376 0.896,-0.576 1.88,-0.864 2.952,-0.864 0.768,0 1.488,0.144 2.16,0.432 0.672,0.272 1.24,0.624 1.704,1.056 V 6.384 c 0,-0.416 0.136,-0.76 0.408,-1.032 0.272,-0.288 0.616,-0.432 1.032,-0.432 z m -4.848,10.68 c 1.04,0 1.888,-0.376 2.544,-1.128 0.656,-0.768 0.984,-1.728 0.984,-2.88 0,-1.152 -0.328,-2.112 -0.984,-2.88 -0.656,-0.768 -1.504,-1.152 -2.544,-1.152 -1.024,0 -1.864,0.384 -2.52,1.152 -0.656,0.768 -0.984,1.728 -0.984,2.88 0,1.152 0.32,2.112 0.96,2.88 0.656,0.752 1.504,1.128 2.544,1.128 z m 12.121,0.936 c 0,0.416 -0.136,0.768 -0.408,1.056 -0.272,0.272 -0.616,0.408 -1.032,0.408 -0.416,0 -0.76,-0.136 -1.032,-0.408 -0.272,-0.288 -0.408,-0.64 -0.408,-1.056 V 6.624 c 0,-0.416 0.136,-0.76 0.408,-1.032 0.272,-0.288 0.616,-0.432 1.032,-0.432 0.416,0 0.76,0.144 1.032,0.432 0.272,0.272 0.408,0.616 0.408,1.032 z M 302.882,3.6 C 302.338,3.6 301.954,3.512 301.73,3.336 301.506,3.16 301.394,2.848 301.394,2.4 V 1.944 c 0,-0.448 0.12,-0.76 0.36,-0.936 0.24,-0.176001 0.624,-0.264001 1.152,-0.264001 0.56,0 0.952,0.088 1.176,0.264001 0.224,0.176 0.336,0.488 0.336,0.936 V 2.4 c 0,0.464 -0.12,0.784 -0.36,0.96 -0.224,0.16 -0.616,0.24 -1.176,0.24 z m 7.544,12.936 c 0,0.416 -0.144,0.768 -0.432,1.056 -0.272,0.272 -0.616,0.408 -1.032,0.408 -0.4,0 -0.736,-0.136 -1.008,-0.408 -0.272,-0.288 -0.408,-0.64 -0.408,-1.056 V 1.704 c 0,-0.416 0.136,-0.760001 0.408,-1.032001 0.288,-0.288 0.64,-0.431999 1.056,-0.431999 0.4,0 0.736,0.143999 1.008,0.431999 0.272,0.272 0.408,0.616001 0.408,1.032001 z m 2.605,-0.528 c -0.144,-0.192 -0.216,-0.432 -0.216,-0.72 0,-0.416 0.208,-0.768 0.624,-1.056 0.224,-0.144 0.456,-0.216 0.696,-0.216 0.336,0 0.656,0.152 0.96,0.456 0.48,0.496 0.976,0.864 1.488,1.104 0.528,0.24 1.16,0.36 1.896,0.36 1.248,-0.048 1.872,-0.52 1.872,-1.416 0,-0.464 -0.216,-0.816 -0.648,-1.056 -0.416,-0.24 -1.072,-0.48 -1.968,-0.72 -0.928,-0.256 -1.688,-0.512 -2.28,-0.768 -0.576,-0.256 -1.08,-0.64 -1.512,-1.152 -0.416,-0.528 -0.624,-1.232 -0.624,-2.112 0,-0.768 0.216,-1.432 0.648,-1.992 0.448,-0.576 1.024,-1.016 1.728,-1.32 0.72,-0.32 1.48,-0.48 2.28,-0.48 0.816,0 1.632,0.152 2.448,0.456 0.816,0.304 1.456,0.752 1.92,1.344 0.208,0.256 0.312,0.544 0.312,0.864 0,0.368 -0.152,0.672 -0.456,0.912 -0.224,0.176 -0.48,0.264 -0.768,0.264 -0.352,0 -0.64,-0.112 -0.864,-0.336 -0.288,-0.352 -0.664,-0.632 -1.128,-0.84 -0.448,-0.208 -0.96,-0.312 -1.536,-0.312 -1.216,0 -1.824,0.44 -1.824,1.32 0,0.352 0.112,0.64 0.336,0.864 0.224,0.208 0.504,0.376 0.84,0.504 0.352,0.112 0.84,0.256 1.464,0.432 0.864,0.24 1.584,0.488 2.16,0.744 0.576,0.256 1.064,0.648 1.464,1.176 0.4,0.528 0.6,1.224 0.6,2.088 0,0.784 -0.232,1.472 -0.696,2.064 -0.464,0.576 -1.064,1.016 -1.8,1.32 -0.72,0.304 -1.464,0.456 -2.232,0.456 -1.056,0 -2.04,-0.176 -2.952,-0.528 -0.912,-0.352 -1.656,-0.92 -2.232,-1.704 z"
         fill="#000000"
         fill-opacity="0.2"
         id="path50" />
    </g>
  </g>
</svg>
